<?xml version="1.0" standalone="no"?>
<!DOCTYPE svg PUBLIC "-//W3C//DTD SVG 20010904//EN"
 "http://www.w3.org/TR/2001/REC-SVG-20010904/DTD/svg10.dtd">
<svg version="1.0" xmlns="http://www.w3.org/2000/svg"
 width="475.000000pt" height="525.000000pt" viewBox="0 0 475.000000 525.000000"
 preserveAspectRatio="xMidYMid meet">

<g transform="translate(0.000000,525.000000) scale(0.100000,-0.100000)"
fill="#000000" stroke="none">
<path d="M1880 5240 c-8 -4 -34 -11 -57 -15 l-43 -7 0 -59 c0 -58 0 -59 -29
-59 -27 0 -29 4 -36 46 l-7 46 -45 -6 c-62 -8 -65 -12 -57 -61 5 -39 4 -44
-16 -50 -25 -8 -39 7 -40 40 -1 41 -12 46 -71 34 -30 -6 -58 -15 -62 -19 -5
-4 -2 -43 7 -86 11 -58 20 -83 35 -93 12 -7 21 -20 21 -27 0 -8 10 -14 23 -14
38 0 66 -39 30 -41 -14 0 -15 -2 -3 -6 8 -3 18 -11 22 -17 11 -16 8 -205 -3
-212 -5 -3 -7 -9 -4 -15 3 -5 3 -24 0 -43 -6 -30 -12 -35 -52 -45 -41 -11 -46
-10 -63 11 -11 13 -19 26 -20 30 0 10 67 38 91 38 10 0 20 4 23 9 7 10 -77 -4
-103 -18 -21 -12 -32 -2 -75 67 l-27 43 33 13 c61 25 63 26 33 21 -16 -3 -37
-8 -46 -11 -12 -3 -18 4 -23 27 -3 17 -3 36 1 43 4 6 6 23 4 38 -1 16 5 34 17
46 19 19 19 20 -1 113 -10 52 -22 97 -26 102 -4 4 -36 -3 -72 -17 -64 -24 -64
-24 -61 -60 3 -31 0 -37 -23 -46 -38 -14 -44 -13 -51 15 -3 14 -12 25 -20 25
-16 0 -145 -49 -157 -60 -9 -8 26 -84 69 -152 32 -50 31 -68 -3 -68 -40 -1
-104 -32 -151 -74 -40 -36 -40 -36 -69 -19 -29 16 -31 16 -66 -11 -128 -98
-214 -349 -177 -516 15 -67 49 -141 81 -178 16 -18 29 -37 29 -42 0 -20 -38
-9 -76 21 -22 17 -51 37 -66 45 -25 13 -28 12 -53 -18 -33 -39 -46 -70 -54
-128 -5 -31 -11 -44 -21 -42 -7 2 -26 6 -42 9 l-28 6 0 -184 c0 -149 4 -202
21 -282 12 -54 19 -100 17 -103 -3 -2 -33 7 -67 21 -53 21 -63 22 -68 9 -11
-31 6 -150 30 -204 43 -97 43 -96 -3 -104 l-40 -6 0 -108 c0 -134 20 -226 65
-309 19 -35 35 -66 35 -68 0 -3 -11 -5 -25 -5 -23 0 -24 -3 -27 -72 l-3 -73
-65 -8 -66 -9 7 -66 c14 -131 86 -283 175 -375 47 -47 69 -61 122 -77 35 -11
79 -20 98 -20 55 0 39 -15 -28 -27 -85 -14 -141 -42 -150 -73 -4 -14 -14 -70
-22 -125 -17 -118 -50 -201 -119 -305 -61 -91 -69 -135 -35 -174 l24 -28 -58
-58 c-66 -66 -118 -164 -118 -222 0 -43 1 -43 40 -23 76 39 210 86 288 101
141 27 439 5 529 -38 20 -9 29 -24 35 -52 8 -37 6 -40 -33 -74 l-42 -36 44
-19 c113 -48 298 -87 419 -87 127 0 318 42 346 77 9 11 31 6 128 -29 63 -24
116 -48 116 -55 0 -6 -15 -16 -32 -22 -34 -12 -209 -115 -310 -183 -46 -31
-58 -45 -64 -73 -8 -45 5 -225 16 -225 5 0 32 25 61 55 94 100 307 258 499
371 44 26 47 26 126 15 103 -14 206 -13 319 4 67 9 93 10 100 1 6 -6 46 -26
90 -45 173 -73 414 -220 484 -295 14 -14 28 -26 33 -26 17 0 8 104 -13 147
-30 61 -134 144 -257 203 -57 28 -108 50 -113 50 -18 0 -8 19 14 25 12 3 80
25 151 48 129 41 129 41 160 23 145 -86 218 -106 379 -106 116 0 207 15 315
51 l64 21 -51 52 c-52 53 -55 66 -15 66 12 0 31 8 43 18 l22 17 -31 49 c-17
26 -29 51 -26 53 3 3 76 21 163 39 261 56 451 40 656 -55 49 -23 91 -41 93
-41 2 0 4 18 4 39 0 27 -11 58 -34 98 -53 90 -99 134 -154 148 -44 12 -47 15
-44 41 5 42 18 51 42 29 25 -22 25 -20 0 96 -12 52 -25 115 -30 140 -12 61
-77 323 -93 374 -12 39 -13 40 -64 43 -29 2 -53 6 -53 9 0 3 11 13 24 24 61
48 120 234 145 459 5 47 13 109 17 138 8 61 2 64 -52 22 -42 -34 -47 -31 -58
31 -11 64 -25 65 -102 13 -38 -25 -107 -83 -152 -128 l-84 -81 7 55 c4 30 8
55 9 55 0 0 41 20 91 45 181 89 319 275 381 510 18 69 18 168 -1 247 -18 75
-99 253 -115 253 -16 0 -67 -36 -112 -78 l-37 -35 -11 27 c-5 15 -10 30 -10
34 0 4 -9 24 -20 45 l-21 38 59 57 c72 70 94 102 117 170 25 79 23 170 -9 297
-33 127 -64 215 -76 215 -18 0 -78 -61 -84 -85 -8 -32 -17 -31 -41 4 -10 17
-36 39 -56 50 l-37 21 5 58 c3 31 0 84 -7 117 -7 33 -16 82 -21 109 -4 27 -20
72 -35 100 -25 49 -99 136 -116 136 -18 0 -48 -41 -58 -79 l-11 -40 -44 33
c-45 35 -96 53 -115 41 -5 -3 -10 -27 -10 -52 l0 -45 -32 6 c-18 4 -48 10 -65
13 -38 6 -40 14 -14 57 118 198 194 325 207 344 16 22 15 22 -37 46 -94 41
-93 41 -118 -4 -19 -34 -27 -40 -44 -34 -35 10 -40 20 -28 55 6 17 11 35 11
40 0 10 -128 52 -143 46 -14 -5 -60 -136 -64 -182 l-2 -30 12 26 12 27 144
-62 c80 -35 146 -67 148 -73 9 -27 -25 -21 -130 21 -164 66 -154 63 -139 43
15 -17 9 -114 -7 -130 -5 -5 -27 -3 -51 3 -23 6 -44 9 -46 7 -3 -2 16 -10 41
-16 50 -13 55 -25 25 -64 -11 -14 -20 -29 -20 -34 0 -4 -8 -18 -18 -30 -17
-22 -18 -22 -67 -7 -27 9 -63 18 -79 21 -51 8 -76 22 -76 40 -1 10 -3 42 -6
72 l-6 54 54 -6 53 -5 -50 12 c-27 7 -50 17 -49 24 1 7 2 18 3 26 0 7 12 29
25 49 l24 35 -35 7 c-19 3 -38 4 -41 1 -3 -3 5 -6 17 -6 16 0 21 -5 19 -17 -4
-20 -12 -20 -173 0 -91 12 -100 15 -103 35 -3 17 2 22 20 23 13 1 3 5 -22 10
-25 5 -49 7 -55 5 -5 -3 -2 -5 7 -5 9 -1 20 -11 24 -23 7 -22 8 -108 1 -114
-2 -2 -37 0 -78 4 l-74 7 -1 39 c0 22 -5 41 -10 43 -5 2 -9 -15 -9 -37 0 -22
-3 -40 -7 -40 -5 0 -35 0 -68 0 l-60 0 0 35 c0 31 3 35 28 36 27 0 27 0 4 10
l-23 9 21 31 c12 16 20 33 17 35 -9 10 -48 -7 -41 -17 3 -6 -2 -22 -12 -37
-10 -15 -17 -33 -15 -41 7 -33 -9 -61 -35 -61 -25 0 -26 2 -19 33 4 17 8 51 9
74 l1 42 -50 6 c-27 4 -79 5 -115 3 l-64 -3 -1 -35 c0 -32 -3 -35 -31 -38 -25
-2 -33 2 -42 23 -7 15 -10 30 -7 35 5 8 -25 24 -32 16 -3 -2 3 -18 11 -35 21
-39 21 -39 -11 -44 l-28 -4 26 -2 c20 -1 29 -8 33 -27 9 -36 -5 -47 -67 -55
l-52 -6 58 -2 c57 -1 58 -1 55 -28 -3 -25 -8 -29 -48 -34 l-45 -6 43 -1 c47
-2 46 -1 30 -39 -6 -15 -10 -32 -9 -36 1 -5 -5 -23 -13 -40 -8 -18 -18 -45
-23 -61 -13 -41 -33 -45 -33 -8 0 21 6 32 18 35 9 3 1 5 -18 6 -23 0 -30 -2
-22 -8 8 -5 12 -20 10 -37 l-4 -29 -14 30 c-8 17 -25 44 -37 61 -27 37 -23 44
31 45 23 1 52 5 66 10 24 8 24 8 -5 6 -28 -2 -30 0 -31 33 0 34 -1 35 -35 32
-44 -5 -51 -12 -11 -12 29 0 32 -3 32 -29 0 -26 -4 -29 -36 -33 -30 -4 -38 0
-47 20 -8 18 -8 25 2 31 9 6 7 10 -8 14 -16 4 -21 13 -21 36 0 29 1 30 52 33
l53 3 -3 42 c-3 33 0 42 15 46 15 4 14 5 -4 6 -19 1 -22 -5 -25 -41 l-3 -43
-47 -3 -48 -3 0 35 c0 28 4 35 23 39 22 4 22 4 -2 6 -20 1 -23 5 -18 27 l5 26
-72 -8 c-39 -4 -82 -8 -96 -10 -14 -1 -32 -4 -40 -7 -8 -3 -53 -11 -99 -17
-68 -9 -85 -9 -92 2 -18 28 -18 29 107 48 39 6 75 10 80 9 5 -1 16 1 24 4 28
12 190 37 204 31 28 -11 34 28 17 123 -9 50 -18 94 -21 97 -3 2 -12 1 -20 -4z
m18 -84 c13 -68 15 -116 6 -116 -14 0 -372 -56 -420 -65 -19 -4 -24 3 -38 61
-9 36 -14 69 -11 74 7 11 75 31 85 25 4 -3 10 -23 14 -46 5 -31 10 -40 22 -35
9 3 29 6 45 6 29 0 30 0 27 52 -3 51 -3 52 30 59 36 7 37 7 47 -53 5 -35 9
-38 38 -38 51 0 59 11 56 71 l-4 54 35 6 c19 4 40 7 46 8 6 0 16 -28 22 -63z
m1588 -82 c27 -9 50 -18 52 -19 2 -2 -4 -20 -12 -40 -9 -21 -16 -39 -16 -42 0
-7 68 -33 87 -33 11 0 24 13 32 31 18 42 35 46 88 20 l45 -22 -18 -27 c-10
-15 -29 -46 -42 -69 -13 -24 -25 -43 -28 -43 -2 0 -27 11 -56 24 -29 13 -93
41 -143 61 -49 20 -92 38 -94 40 -5 6 40 135 48 135 4 0 30 -7 57 -16z m-2175
-24 c4 -14 7 -39 8 -56 1 -31 -1 -32 -146 -93 -82 -34 -153 -64 -158 -67 -6
-2 -25 22 -43 55 l-32 59 32 12 c18 6 48 18 66 26 43 18 41 19 53 -16 l11 -29
46 19 c44 17 47 20 46 54 -1 33 2 36 40 50 53 19 69 16 77 -14z m999 -65 c0
-2 -11 -15 -25 -29 -52 -52 22 -119 77 -69 24 21 23 48 -2 73 -27 27 -25 30
10 30 39 0 44 -15 30 -84 -12 -57 -44 -96 -80 -96 -25 0 -56 39 -74 93 -26 76
-23 87 24 87 22 0 40 -2 40 -5z m-450 -45 c0 -11 -5 -20 -12 -20 -9 0 -9 -3 0
-12 13 -13 16 -64 4 -72 -4 -2 -36 -8 -70 -12 l-62 -7 0 36 c0 39 -5 36 90 50
17 3 14 4 -10 5 -19 0 -69 -5 -110 -13 -56 -10 -64 -13 -30 -12 l45 2 3 -37
c3 -35 1 -38 -24 -38 -15 0 -24 -3 -21 -6 4 -4 47 -1 97 6 97 14 106 11 112
-30 2 -14 9 -35 16 -47 7 -12 12 -27 12 -33 0 -7 9 -25 21 -41 18 -25 18 -30
5 -35 -24 -9 -46 3 -46 26 0 28 -2 33 -22 54 -10 11 -18 25 -18 32 0 12 -43
24 -85 24 -12 0 -33 -8 -46 -19 -13 -10 -48 -22 -76 -26 l-53 -7 0 36 c0 20 5
36 11 36 8 0 8 4 2 13 -6 6 -13 25 -15 40 -4 22 -1 30 16 37 l21 9 -21 0 c-12
1 -27 8 -34 16 -16 19 -14 20 135 41 66 9 122 18 124 20 14 13 41 2 41 -16z
m-530 -7 c0 -32 -13 -40 -150 -96 -122 -50 -136 -54 -147 -39 -7 8 -13 19 -13
22 0 7 279 128 298 129 6 1 12 -7 12 -16z m980 -15 c0 -18 -2 -20 -9 -8 -6 8
-7 18 -5 22 9 14 14 9 14 -14z m-96 -4 c16 -41 7 -54 -34 -54 -39 0 -40 1 -40
35 0 33 2 35 34 35 22 0 36 -6 40 -16z m766 -18 c67 -10 110 -18 110 -20 0 -2
-5 -18 -11 -35 -11 -30 -15 -32 -42 -27 -16 3 -40 6 -53 6 -16 0 -24 6 -24 18
0 14 -2 15 -9 2 -15 -22 -6 -27 59 -35 58 -7 60 -8 60 -36 0 -25 -4 -29 -26
-29 -14 0 -37 9 -51 20 -14 11 -35 20 -46 20 -29 0 -87 -22 -87 -33 0 -5 -8
-21 -18 -35 -20 -29 -41 -81 -48 -122 -8 -44 -13 -50 -41 -51 l-28 -2 27 -4
c23 -4 27 -9 25 -32 -6 -48 -13 -52 -80 -45 -34 4 -64 8 -66 10 -4 4 41 68 51
72 4 2 8 12 8 22 0 10 4 21 9 24 5 3 18 25 30 48 53 106 66 123 96 129 23 5
25 7 8 8 -13 0 -23 7 -23 14 0 17 21 43 40 50 12 4 11 6 -2 6 -13 1 -18 9 -18
29 0 16 3 32 8 36 6 7 49 5 142 -8z m-1680 -52 c0 -19 -8 -28 -37 -40 -20 -9
-52 -18 -70 -21 -28 -5 -33 -3 -33 13 0 14 17 26 68 46 37 15 68 27 70 27 1 1
2 -10 2 -25z m2239 -22 c52 -20 96 -43 99 -49 6 -19 -24 -15 -118 16 -68 23
-86 32 -88 50 -2 11 0 21 5 21 4 0 50 -17 102 -38z m-1274 -2 l29 -30 -45 -1
-44 -2 37 -6 37 -6 -24 -27 c-13 -16 -34 -29 -47 -29 -15 -1 -18 -3 -6 -6 13
-3 16 -17 16 -74 l0 -69 -36 -2 -37 -1 37 -4 c31 -4 38 -9 47 -36 23 -73 33
-68 -142 -71 -152 -2 -158 -1 -162 19 -13 58 -12 60 27 63 31 3 39 -1 54 -27
10 -17 21 -31 24 -31 3 0 12 16 19 35 10 28 18 35 39 35 15 0 34 5 42 10 10 6
3 8 -22 3 -41 -6 -44 -1 -28 41 8 22 16 26 52 28 l43 1 -37 4 c-21 2 -38 7
-38 11 1 26 15 52 29 52 13 0 13 2 2 9 -9 6 -11 18 -7 35 5 20 13 26 34 27 23
2 24 2 5 6 -17 3 -23 11 -23 32 0 37 6 41 55 41 33 0 47 -6 70 -30z m213 -2
c3 -28 2 -28 -52 -28 -31 0 -56 2 -56 5 0 2 10 15 23 29 15 17 31 24 52 23 25
-2 31 -7 33 -29z m280 16 c47 -6 49 -9 25 -44 -9 -13 -18 -32 -18 -43 -1 -10
-9 -25 -18 -34 -14 -14 -23 -15 -64 -5 -26 6 -52 7 -56 3 -5 -5 17 -12 47 -15
31 -4 56 -9 56 -11 0 -12 -25 -55 -32 -55 -4 0 -8 -6 -8 -14 0 -7 -9 -24 -19
-38 -28 -35 -76 -28 -90 15 -15 41 -15 40 24 34 21 -3 33 -2 30 4 -4 5 -22 9
-40 9 -28 0 -37 6 -50 30 -20 38 -20 38 13 43 26 4 26 4 -4 6 -24 1 -33 7 -38
24 -9 36 -8 37 37 39 l42 1 -45 6 c-39 5 -45 9 -48 32 l-3 27 108 -4 c59 -3
127 -7 151 -10z m-1608 -53 c0 -11 -9 -23 -21 -26 -11 -4 -19 -9 -16 -11 2 -2
41 10 87 26 45 17 84 29 85 28 1 -2 5 -19 9 -40 l7 -36 -50 -17 -50 -16 19
-32 c11 -18 20 -40 20 -49 0 -22 0 -22 41 -3 l34 16 -30 -6 c-28 -5 -33 -2
-48 30 l-17 36 35 14 c19 8 36 15 38 15 6 0 79 -121 76 -124 -2 -2 -29 -11
-59 -21 -30 -10 -63 -22 -73 -27 -17 -9 -16 -10 5 -28 13 -10 25 -16 27 -14 3
2 -4 10 -14 18 -17 12 -12 16 54 37 l73 24 19 -24 c11 -14 18 -30 15 -38 -3
-7 1 -13 9 -13 18 0 40 -39 28 -50 -16 -14 -114 -42 -129 -36 -31 12 -11 49
34 64 24 8 41 16 39 18 -3 4 -97 -25 -106 -32 -2 -2 4 -21 13 -44 17 -44 21
-100 7 -100 -5 0 -37 46 -70 102 -54 90 -60 103 -44 110 10 3 13 7 7 7 -20 2
-84 74 -84 95 0 3 17 14 38 25 44 24 39 27 -11 6 -35 -14 -36 -14 -55 13 -11
15 -23 37 -26 50 -4 12 -12 22 -17 22 -22 0 -6 19 29 33 51 22 72 21 72 -2z
m2324 13 c9 -4 16 -18 16 -33 0 -40 -12 -51 -43 -43 -30 8 -32 11 -23 52 5 30
19 36 50 24z m-984 -40 c14 -35 14 -34 -28 -34 -31 0 -43 6 -60 30 l-23 30 51
0 c45 0 52 -3 60 -26z m1073 10 c26 -9 47 -20 47 -25 0 -22 -93 -179 -106
-179 -9 0 -12 5 -9 10 9 14 -1 13 -34 -5 -29 -14 -75 -8 -111 15 -13 8 -13 12
0 32 8 13 21 37 30 53 29 56 26 55 87 34 31 -10 58 -17 60 -15 3 2 -5 7 -17
11 -18 6 -20 12 -14 38 6 31 12 47 18 47 1 0 23 -7 49 -16z m-1186 -16 c24
-19 13 -25 -51 -26 -54 0 -64 2 -59 15 12 31 78 38 110 11z m614 -19 c29 -48
-20 -304 -53 -271 -9 9 -9 18 -1 34 28 57 35 164 12 179 -47 30 -91 -22 -104
-121 -9 -67 -20 -91 -40 -83 -11 4 -13 12 -9 27 4 11 8 32 10 44 4 41 26 124
38 146 36 67 38 68 90 63 26 -2 52 -10 57 -18z m-1170 -16 c26 -31 53 -92 45
-100 -7 -7 -36 21 -54 53 -9 16 -92 7 -86 -10 6 -17 -11 -69 -24 -74 -8 -2
-12 9 -12 32 0 20 5 36 11 36 8 0 8 4 0 14 -6 7 -8 21 -5 31 14 35 101 47 125
18z m1235 9 c6 -4 15 -22 19 -39 5 -28 4 -33 -12 -34 -15 0 -14 -2 5 -9 12 -5
22 -15 22 -22 0 -7 3 -23 6 -36 6 -22 5 -23 -32 -18 l-39 5 42 -11 c33 -8 44
-17 52 -40 6 -17 8 -34 5 -39 -3 -5 2 -17 11 -26 9 -9 14 -24 12 -34 -5 -18
11 -29 39 -29 9 0 12 5 8 12 -4 6 1 17 10 24 14 10 32 8 99 -13 45 -14 85 -30
88 -35 13 -21 15 8 3 32 -11 20 -14 21 -14 6 0 -13 -5 -16 -17 -11 -10 3 -44
13 -75 22 -32 9 -58 20 -58 25 0 5 9 18 20 30 20 22 20 22 77 4 67 -21 66 -21
72 -5 2 6 -1 9 -6 6 -13 -8 -113 21 -113 32 0 4 11 18 24 30 24 22 26 23 68 9
32 -11 42 -20 40 -33 -3 -15 2 -13 28 8 27 23 50 34 50 24 0 -1 -9 -20 -20
-42 -11 -22 -20 -49 -20 -61 0 -12 -11 -47 -25 -78 -14 -32 -23 -62 -19 -67 3
-6 -4 -13 -16 -16 -15 -4 -18 -8 -10 -13 23 -14 -1 -31 -33 -26 -29 5 -30 5
-10 -5 18 -10 20 -15 11 -35 -6 -13 -14 -24 -18 -24 -4 0 -5 -13 -2 -30 3 -21
0 -30 -10 -30 -13 0 -82 20 -128 37 -8 3 -22 7 -30 8 -8 1 -28 5 -45 9 -52 11
2 -10 104 -41 85 -25 126 -51 109 -68 -3 -4 -44 5 -89 19 -114 33 -248 62
-404 87 -209 33 -306 40 -555 40 -187 0 -265 -4 -380 -21 -203 -29 -379 -73
-460 -115 -28 -15 -30 -14 -30 4 0 16 16 25 83 45 128 39 298 84 347 92 25 4
38 9 29 11 -9 2 -47 -3 -83 -12 -93 -21 -96 -20 -97 18 -2 31 -2 30 -8 -7 -6
-38 -7 -40 -68 -57 -127 -35 -125 -35 -121 2 2 26 9 34 34 43 25 9 30 15 24
30 -7 20 -7 20 -12 0 -3 -13 -23 -25 -61 -37 -60 -19 -77 -33 -27 -22 28 6 30
5 30 -23 0 -26 -5 -32 -36 -42 -38 -13 -51 -7 -57 25 -2 11 -8 30 -15 42 -7
12 -12 26 -12 31 0 11 133 54 168 54 12 0 22 4 22 8 0 9 159 48 210 52 32 3
35 1 35 -24 -1 -16 4 -28 10 -28 7 0 11 15 11 35 -1 25 -6 35 -17 35 -39 0
-146 -25 -287 -66 -140 -42 -193 -49 -178 -25 3 5 17 12 31 15 43 11 137 48
132 52 -2 2 -37 -7 -77 -21 -86 -29 -108 -32 -91 -11 7 8 55 32 107 52 52 21
90 41 84 44 -8 5 -7 15 1 33 9 19 24 30 53 38 23 5 52 14 66 20 l25 9 -25 -5
c-14 -3 -42 -8 -62 -11 -37 -6 -37 -6 -29 22 6 22 16 31 47 41 21 6 49 12 62
12 20 1 23 -3 21 -26 -2 -16 3 -38 10 -51 6 -12 9 -27 6 -32 -4 -6 38 -10 112
-11 81 0 112 -3 98 -10 -15 -7 -11 -8 15 -4 75 13 668 17 766 6 197 -21 207
-22 134 -7 l-65 14 50 3 c28 1 66 1 85 -1 86 -8 94 -7 95 20 0 27 11 29 90 17
25 -4 19 -1 -18 10 -58 15 -59 16 -53 47 3 17 8 49 11 70 2 22 10 43 17 48 10
6 10 8 1 8 -8 0 -13 14 -13 35 0 34 12 43 36 27z m-2080 -54 c-13 -24 -38 -78
-57 -120 -19 -43 -37 -78 -40 -78 -4 0 -20 27 -36 60 l-30 59 33 40 c34 39
104 81 136 81 15 0 14 -5 -6 -42z m67 21 c6 -22 0 -143 -8 -169 -5 -14 -106
-82 -113 -75 -2 2 18 47 43 101 63 132 66 139 52 153 -8 8 -7 11 5 11 9 0 18
-9 21 -21z m628 0 c-3 -8 -5 -36 -5 -63 -1 -52 -4 -55 -74 -71 l-33 -7 7 39
c4 21 10 39 14 41 3 1 5 16 2 32 -4 26 0 30 29 39 43 12 65 9 60 -10z m611 -4
c-2 -11 -4 -40 -5 -65 -2 -34 -6 -46 -19 -48 -15 -3 -18 4 -18 32 0 22 5 36
13 36 9 0 8 3 -2 9 -20 13 -6 63 17 59 10 -2 16 -11 14 -23z m133 8 c3 -10 9
-42 12 -70 4 -42 2 -53 -10 -53 -10 0 -17 15 -22 48 -3 26 -9 57 -12 70 -6 27
21 31 32 5z m120 -54 c19 -38 35 -72 35 -74 0 -2 -12 -6 -27 -8 -26 -4 -26 -4
4 -6 27 -1 36 -8 53 -41 11 -21 20 -42 20 -45 0 -3 -40 -5 -90 -5 l-90 0 1 28
c1 15 4 38 8 52 7 25 -1 108 -14 149 -6 19 -2 21 29 21 34 0 37 -3 71 -71z
m1457 -79 c18 -30 34 -58 34 -62 1 -4 2 -9 4 -10 1 -2 3 -10 5 -18 2 -8 8 -35
13 -60 l10 -45 -21 29 c-12 16 -37 46 -54 67 -29 32 -33 44 -33 92 0 55 -12
81 -24 51 -3 -9 -6 -29 -6 -45 0 -30 -6 -34 -29 -20 -18 12 -8 68 17 88 9 8
11 11 3 7 -9 -5 -12 -3 -7 4 11 19 50 -16 88 -78z m-2858 9 l26 -46 -45 1
c-50 1 -51 4 -38 79 7 45 14 40 57 -34z m1206 22 c0 -50 -13 -74 -24 -45 -8
21 -8 79 1 87 16 17 23 4 23 -42z m-1558 -21 c3 -34 1 -36 -54 -65 -32 -16
-58 -35 -58 -42 0 -20 18 -16 77 18 30 17 56 30 57 28 2 -2 16 -28 30 -57 l27
-53 -29 -24 c-36 -30 -102 -116 -135 -176 -29 -53 -47 -130 -47 -201 0 -43 -2
-49 -14 -39 -44 37 -79 146 -81 255 -2 118 49 267 117 340 10 11 18 23 18 27
0 4 15 16 33 28 38 24 54 14 59 -39z m2446 31 l73 -22 -22 -30 c-17 -24 -27
-29 -45 -25 -59 14 -75 14 -30 0 l48 -16 -38 -39 c-38 -39 -54 -48 -54 -29 0
6 8 10 18 11 14 0 13 2 -4 9 -26 10 -50 70 -33 80 7 5 6 9 -4 13 -15 5 -29 55
-20 70 5 9 5 9 111 -22z m-1438 -61 c13 -59 9 -83 -9 -64 -11 11 -29 105 -23
122 7 23 19 2 32 -58z m170 51 c17 -33 12 -42 -22 -39 -28 2 -34 8 -36 31 -3
23 0 27 22 27 15 0 30 -8 36 -19z m1808 -5 c20 -13 50 -38 66 -55 17 -17 35
-31 42 -31 15 0 143 -136 157 -168 6 -13 16 -21 24 -18 17 7 18 -140 0 -170
-35 -60 -73 -114 -78 -114 -3 0 -10 15 -16 34 -8 26 -8 39 2 53 36 51 67 125
58 134 -7 7 -22 -9 -48 -50 -20 -34 -38 -61 -39 -61 -12 0 -47 127 -41 149 13
56 17 121 5 121 -12 0 -16 -9 -25 -65 l-7 -40 -25 55 c-13 30 -36 81 -50 113
-26 55 -48 72 -59 44 -3 -8 16 -56 41 -108 l46 -94 -41 -3 c-59 -5 -54 -30 8
-34 43 -3 49 -6 64 -38 9 -19 20 -47 23 -62 8 -30 6 -31 -81 -42 -47 -7 -49
-4 -73 99 -16 65 -27 245 -15 245 5 0 7 29 6 65 -4 74 0 77 56 41z m-1884 -2
c9 -24 7 -44 -4 -44 -12 0 -30 41 -23 53 7 12 21 8 27 -9z m-162 -31 c0 -10 2
-23 2 -30 1 -6 5 -15 9 -19 4 -4 7 -16 7 -26 0 -25 -25 -17 -26 8 -1 10 -6 32
-13 47 -14 36 -14 37 4 37 8 0 16 -8 17 -17z m558 -22 c0 -16 3 -36 6 -45 4
-11 1 -16 -10 -16 -9 0 -16 3 -16 8 0 4 -4 24 -9 45 -8 33 -7 37 10 37 14 0
19 -7 19 -29z m146 -2 c-3 -17 -6 -38 -6 -45 0 -9 -11 -14 -27 -14 -24 1 -25
2 -10 11 11 6 17 22 17 44 0 26 4 35 16 35 13 0 15 -7 10 -31z m-396 11 c0 -5
-2 -10 -4 -10 -3 0 -8 5 -11 10 -3 6 -1 10 4 10 6 0 11 -4 11 -10z m608 -12
c-5 -15 -23 -11 -26 6 -2 11 2 14 13 10 9 -4 14 -11 13 -16z m-1108 -2 c0 -17
-24 -66 -34 -66 -11 0 -40 39 -34 46 11 10 68 28 68 20z m365 -29 c0 -39 -19
-38 -23 2 -3 24 0 32 10 29 7 -3 13 -17 13 -31z m1745 22 c30 -11 32 -14 26
-48 -3 -20 -6 -51 -6 -70 0 -33 0 -34 -20 -16 -15 14 -20 31 -20 71 0 53 -13
78 -24 48 -3 -9 -6 -25 -6 -35 0 -18 -4 -17 -45 12 -24 17 -42 36 -39 40 8 13
95 11 134 -2z m-2492 -32 c10 0 12 -10 7 -36 -4 -20 -11 -41 -16 -47 -5 -6 -7
-13 -4 -16 5 -5 -49 -143 -64 -162 -5 -6 -12 -29 -15 -51 -21 -119 -74 -226
-139 -281 -35 -30 -109 -64 -137 -64 -10 0 -21 -8 -24 -17 -5 -13 -9 -14 -19
-4 -9 10 -9 14 4 21 9 6 19 24 23 42 4 21 19 43 40 60 37 30 101 59 110 51 8
-9 37 18 30 28 -9 15 -42 10 -94 -15 -28 -13 -50 -22 -50 -20 0 2 10 23 22 48
21 44 22 45 96 58 46 8 77 18 80 27 4 11 -4 13 -42 8 -25 -4 -58 -10 -72 -13
l-26 -7 37 59 c48 76 48 76 90 83 39 7 48 24 15 29 -11 2 -20 5 -20 7 0 8 90
133 105 145 19 16 19 30 1 30 -15 0 -56 -52 -160 -199 l-66 -94 0 83 c0 61 -3
81 -12 78 -9 -3 -14 -36 -15 -107 -2 -71 -8 -111 -19 -133 l-16 -32 -20 27
c-11 15 -26 27 -34 27 -19 0 -18 -6 12 -46 19 -25 25 -41 20 -59 l-7 -26 -26
21 c-14 11 -32 20 -39 20 -17 0 -17 5 -3 71 35 164 125 260 373 402 17 9 38
14 46 11 8 -4 21 -7 28 -7z m2374 -53 c-27 -21 -39 -16 -37 14 3 46 4 46 30
22 23 -21 23 -24 7 -36z m-2283 -40 c22 -36 41 -67 41 -70 0 -2 12 -23 26 -45
14 -23 23 -43 21 -46 -3 -2 -22 0 -44 6 -21 6 -65 8 -100 5 -35 -4 -63 -4 -63
-1 0 3 14 46 30 95 17 50 30 97 30 106 0 31 18 16 59 -50z m249 22 c11 -24 4
-29 -140 -82 -15 -5 -18 0 -18 28 0 33 2 35 63 55 80 27 82 27 95 -1z m2115
-34 c30 -31 33 -42 14 -42 -7 0 -28 -11 -48 -24 l-36 -25 -16 35 c-22 44 -21
60 1 73 29 18 57 12 85 -17z m-115 -61 c28 -68 28 -71 -6 -71 -15 0 -38 -7
-50 -16 -35 -24 -28 -64 18 -117 22 -25 37 -48 33 -50 -10 -6 -103 -6 -125 0
-14 3 -18 15 -18 49 0 47 10 71 51 120 14 17 29 50 33 74 8 50 25 86 35 74 4
-5 17 -33 29 -63z m176 -13 c3 -7 7 -25 10 -40 l6 -28 -60 0 c-52 0 -60 2 -60
19 0 22 14 34 55 49 40 14 45 14 49 0z m-104 -95 c32 -4 35 -8 37 -39 1 -19 1
-34 -1 -34 -2 0 -29 9 -61 20 -69 24 -65 23 -65 6 0 -8 17 -20 38 -26 80 -26
168 -67 199 -94 l22 -19 -30 -35 c-17 -19 -36 -46 -42 -61 -11 -23 -12 -18
-15 50 -3 70 -5 77 -28 88 -14 6 -34 11 -44 11 -37 0 -87 33 -114 74 l-27 41
22 17 c14 12 31 16 48 12 14 -3 42 -8 61 -11z m-2290 3 c0 -2 -22 -20 -49 -39
l-49 -36 -4 35 c-2 18 1 36 7 38 13 6 95 7 95 2z m-133 -67 c1 -55 -1 -61 -24
-70 -40 -15 -43 -11 -28 32 8 23 15 50 15 60 0 10 8 23 18 28 9 6 17 11 17 11
1 0 1 -27 2 -61z m1523 35 c262 -29 571 -95 539 -115 -19 -12 -1739 -12 -1739
0 0 11 132 53 255 80 96 21 298 49 405 55 112 6 399 -4 540 -20z m1046 -44
c13 -36 24 -66 24 -68 0 -6 -75 42 -78 50 -2 4 -10 8 -18 8 -10 0 -14 12 -14
41 0 39 1 40 31 37 29 -3 33 -9 55 -68z m-2402 33 c-17 -69 -45 -98 -92 -95
-20 2 -38 4 -40 6 -8 8 112 114 131 115 4 1 4 -11 1 -26z m65 -20 c27 -102 30
-93 -32 -93 l-55 0 24 48 c13 26 25 55 28 65 9 28 25 19 35 -20z m2936 -33 c4
-6 2 -17 -4 -23 -5 -7 -16 -46 -22 -87 -12 -68 -13 -72 -22 -45 -5 17 -14 35
-19 42 -12 15 0 61 24 96 21 29 33 34 43 17z m-394 -42 c10 -31 10 -43 2 -45
-7 -3 -28 -15 -47 -28 l-35 -24 -18 32 c-10 18 -26 46 -36 64 l-17 32 47 4
c27 2 57 4 69 5 16 2 24 -7 35 -40z m238 11 c17 -17 34 -42 38 -57 3 -14 12
-37 19 -51 20 -38 17 -48 -18 -60 -37 -13 -98 -68 -98 -88 0 -22 19 -15 48 17
15 17 42 35 60 40 30 8 34 7 43 -18 17 -43 23 -269 10 -332 -9 -41 -20 -62
-49 -89 -58 -54 -122 -102 -130 -97 -4 2 -34 41 -66 85 -66 92 -98 180 -90
245 18 135 87 318 152 404 30 40 42 40 81 1z m215 -148 c6 -40 5 -42 -14 -36
-12 4 -27 2 -35 -5 -9 -7 -15 -8 -19 -1 -6 10 9 127 21 161 6 19 37 -61 47
-119z m-585 43 l21 -26 -25 -30 c-14 -16 -25 -36 -25 -43 0 -27 17 -23 43 11
16 19 32 34 37 34 18 0 88 -82 83 -97 -8 -20 -126 -6 -203 24 -8 4 -18 7 -22
7 -16 2 -17 15 -6 49 13 35 56 96 70 97 4 0 16 -12 27 -26z m172 -19 c3 -21
-10 -85 -17 -85 -2 0 -23 20 -47 43 l-43 44 45 21 c48 22 56 19 62 -23z
m-3207 -17 c6 -10 5 -31 -4 -62 l-13 -48 -23 24 c-19 20 -21 30 -17 76 5 51 6
52 26 39 12 -8 25 -21 31 -29z m287 9 c-10 -9 -11 -8 -5 6 3 10 9 15 12 12 3
-3 0 -11 -7 -18z m-488 -58 l55 -41 -15 -29 c-11 -22 -12 -37 -5 -58 22 -63
-6 -47 -54 31 -47 76 -74 105 -74 78 0 -15 77 -147 99 -169 17 -18 28 -71 14
-71 -4 0 -24 15 -44 33 -20 18 -52 44 -72 57 -42 28 -48 64 -22 126 8 19 13
36 12 38 -3 6 35 46 43 46 4 0 32 -18 63 -41z m509 -74 l-3 -115 -27 14 c-65
34 -66 38 -41 82 12 21 33 60 46 87 13 26 25 47 26 47 1 0 1 -52 -1 -115z
m-85 14 l-42 -80 33 -28 c17 -15 32 -30 32 -33 0 -3 -15 -9 -33 -12 -18 -3
-49 -18 -67 -31 l-34 -25 -10 22 c-6 13 -10 43 -11 68 0 25 -4 52 -8 61 -6 12
1 18 32 28 23 6 63 33 93 61 29 27 54 49 55 50 2 0 -16 -36 -40 -81z m2119 47
c5 -20 14 -24 61 -30 57 -7 58 -6 82 32 6 11 15 9 44 -8 20 -12 37 -24 37 -26
0 -3 -7 -15 -16 -29 -14 -22 -14 -26 1 -49 15 -22 22 -25 54 -20 34 5 37 4 49
-28 16 -46 16 -45 -18 -57 -25 -8 -30 -15 -30 -43 0 -28 5 -35 30 -45 l29 -11
-16 -41 c-14 -35 -19 -40 -37 -35 -35 12 -41 10 -79 -23 -32 -28 -35 -36 -30
-66 5 -30 2 -35 -20 -41 -14 -3 -32 -8 -40 -12 -10 -3 -18 4 -25 24 -9 26 -16
30 -63 35 -49 6 -55 4 -74 -18 l-20 -25 -33 20 c-25 15 -32 25 -27 38 16 38
15 49 -3 72 -17 20 -22 22 -50 12 -29 -10 -31 -9 -41 20 -16 46 -14 55 19 67
25 8 30 15 30 41 0 26 -5 34 -30 43 -35 13 -35 13 -15 60 14 35 16 36 46 25
28 -10 33 -8 69 27 34 33 37 41 29 63 -11 27 -5 37 26 45 42 10 55 7 61 -17z
m1296 -38 c3 -87 -1 -94 -49 -104 -28 -6 -32 -3 -37 22 -9 44 7 86 40 105 42
25 44 24 46 -23z m-647 -28 c32 -11 72 -20 89 -20 57 0 76 -10 76 -39 0 -47
-12 -54 -61 -40 -24 7 -82 15 -129 18 l-85 6 1 30 c3 99 2 97 27 80 13 -8 49
-24 82 -35z m-3343 -172 c12 -24 30 -60 40 -81 17 -37 17 -38 -1 -32 -23 7
-73 -14 -68 -29 2 -6 25 -11 51 -11 48 0 48 0 66 -46 l18 -45 -70 0 c-48 1
-72 -3 -75 -11 -3 -9 10 -13 45 -13 98 0 109 -6 127 -67 9 -30 15 -56 13 -58
-2 -1 -42 0 -89 3 l-87 4 -11 57 c-31 155 -38 266 -24 379 l6 53 18 -30 c10
-16 28 -49 41 -73z m3988 58 c0 -26 -23 -82 -49 -116 -14 -19 -25 -38 -23 -42
1 -5 -2 -8 -6 -8 -7 0 -5 132 3 157 3 10 24 17 63 22 6 0 12 -5 12 -13z
m-3907 -50 c42 -37 44 -41 31 -60 -45 -64 30 -140 111 -113 14 4 29 -2 48 -19
27 -23 29 -29 29 -102 0 -42 -3 -93 -7 -112 -9 -49 -46 -173 -55 -183 -3 -4
-13 17 -20 48 -12 49 -11 59 5 95 18 40 13 71 -6 37 -15 -26 -24 -21 -37 20
-10 32 -8 43 13 87 29 60 19 80 -19 36 -14 -17 -26 -28 -27 -23 -3 34 -53 161
-104 264 -19 39 -35 73 -35 76 0 7 25 -11 73 -51z m3362 40 c38 -11 40 -14 42
-53 3 -60 21 -122 48 -157 56 -77 55 -85 -5 -22 -36 38 -64 74 -62 80 2 6 0 8
-4 3 -4 -4 -46 30 -92 75 -55 53 -87 78 -90 69 -2 -7 20 -37 49 -67 l53 -54
-29 0 c-17 -1 -40 -9 -52 -19 -28 -23 -31 -46 -5 -36 9 4 31 12 47 17 17 6 35
15 41 20 7 5 27 -10 57 -46 46 -53 49 -66 18 -66 -25 0 -141 -72 -141 -87 0
-15 26 -18 35 -3 11 17 103 60 129 60 14 0 27 4 31 10 3 5 21 -7 39 -28 l34
-37 -36 -24 c-21 -13 -51 -37 -68 -53 l-31 -29 -54 26 c-30 14 -72 42 -94 61
l-40 35 -3 170 -4 169 74 -1 c40 0 91 -6 113 -13z m-2815 -55 c-5 -11 -14 -22
-19 -26 -11 -6 -106 -144 -138 -200 -21 -37 -23 -38 -23 -14 0 15 -9 38 -20
52 -11 14 -20 28 -20 32 0 4 16 29 35 55 42 57 102 101 153 110 20 4 38 8 40
9 1 0 -2 -8 -8 -18z m30 -69 l0 -48 -37 -2 c-20 -2 -40 -5 -45 -8 -13 -8 -10
4 6 23 55 67 68 83 72 83 2 0 4 -22 4 -48z m-3 -179 c-6 -106 -22 -168 -50
-191 -8 -7 -18 -8 -22 -4 -5 4 -5 2 -1 -5 4 -7 -10 -23 -36 -41 -45 -30 -217
-116 -223 -110 -2 2 2 17 9 33 11 24 25 35 77 53 35 12 78 22 96 22 26 0 31 3
26 16 -5 14 -16 15 -60 10 -30 -4 -68 -13 -83 -21 l-29 -15 19 42 c20 46 47
64 141 97 30 11 55 26 57 35 5 24 -25 20 -96 -14 l-64 -30 23 38 c13 20 29 46
36 58 17 27 84 64 117 64 16 0 26 5 26 15 0 18 -41 20 -71 5 -12 -7 -19 -7
-19 -1 0 15 20 25 75 37 28 6 52 12 54 13 2 0 1 -47 -2 -106z m1775 35 l13
-42 60 -4 c33 -2 73 -10 89 -18 31 -15 32 -14 56 27 8 14 17 15 46 9 19 -5 38
-11 41 -14 3 -3 -4 -22 -16 -42 l-22 -37 23 -34 c20 -29 27 -33 53 -29 69 13
67 14 86 -42 l18 -53 -44 -19 c-43 -18 -45 -21 -45 -60 0 -39 3 -43 40 -58 22
-9 40 -22 40 -28 0 -6 -9 -32 -20 -58 l-21 -46 -40 17 -40 16 -32 -34 c-18
-19 -43 -41 -56 -50 -22 -14 -23 -18 -13 -49 7 -18 12 -38 12 -45 0 -13 -101
-48 -111 -37 -4 4 -12 24 -19 45 -11 36 -12 37 -63 37 -29 0 -61 3 -73 6 -16
4 -24 -3 -39 -30 -11 -20 -24 -36 -29 -36 -15 0 -96 50 -96 60 0 5 9 24 19 42
l19 33 -28 34 c-28 33 -30 34 -68 23 -22 -7 -42 -12 -45 -12 -6 0 -37 88 -37
106 0 7 18 18 39 24 37 10 39 12 43 55 3 45 3 45 -40 62 -46 17 -46 17 -16 90
16 36 22 38 68 22 29 -10 34 -8 85 41 53 52 53 53 43 89 -13 42 -11 44 48 65
60 20 56 22 72 -26z m1417 -97 c6 -19 11 -50 11 -70 0 -30 -5 -40 -30 -54
l-29 -18 6 67 c5 55 4 66 -8 62 -8 -2 -16 -21 -19 -41 -4 -29 -8 -35 -20 -27
-22 14 -40 12 -40 -4 0 -8 9 -17 19 -21 27 -8 32 -29 25 -101 l-7 -64 -39 53
c-21 28 -43 54 -48 55 -20 7 -9 -31 18 -63 62 -73 63 -76 60 -118 l-3 -41 -57
57 c-52 52 -78 69 -78 49 0 -4 29 -39 65 -77 59 -64 65 -74 65 -114 l0 -44
-43 44 c-23 24 -41 46 -40 49 0 3 -10 6 -23 6 -33 2 -31 -22 4 -40 29 -15 63
-51 82 -86 8 -15 10 -42 5 -77 l-7 -55 -21 31 c-12 16 -34 35 -48 41 -24 10
-30 23 -48 103 -12 51 -32 118 -45 150 -18 44 -22 65 -16 92 10 43 35 84 58
92 28 11 50 35 45 49 -2 7 9 22 25 34 17 13 32 30 35 40 2 10 28 36 57 59 59
47 68 45 89 -18z m223 -38 c20 -43 38 -85 40 -93 5 -15 -79 -76 -90 -66 -12
13 -11 72 3 119 18 60 19 77 5 77 -14 0 -30 -43 -39 -100 l-6 -44 -33 42 c-22
28 -31 46 -25 56 8 15 93 85 104 85 3 1 22 -34 41 -76z m-3677 -15 c-24 -46
-60 -121 -80 -168 -52 -123 -58 -134 -78 -149 -10 -7 -22 -21 -25 -32 -4 -10
-12 -15 -17 -11 -14 10 -85 155 -79 161 3 3 23 -1 46 -9 35 -13 43 -21 53 -55
6 -22 15 -39 20 -38 17 2 84 216 100 316 5 34 8 37 39 37 19 0 39 7 46 15 24
29 19 15 -25 -67z m2953 -6 c40 -30 152 -72 192 -72 33 0 38 -11 16 -30 -8 -6
-23 -33 -32 -58 -10 -26 -21 -51 -25 -56 -5 -6 -27 4 -53 23 -40 28 -139 78
-188 95 -15 4 -18 18 -18 92 l0 86 38 -28 c20 -15 52 -39 70 -52z m274 51 c24
-22 23 -33 -10 -72 -27 -32 -30 -34 -75 -27 -25 4 -49 11 -51 15 -3 5 19 25
49 46 30 20 55 41 55 46 0 14 11 11 32 -8z m-2932 -343 l0 -320 -30 0 c-35 0
-35 -1 -15 104 16 86 35 315 27 330 -9 16 -104 -3 -170 -34 -36 -17 -85 -46
-108 -65 -45 -37 -74 -44 -93 -22 -8 11 15 26 117 74 144 69 216 130 248 207
10 25 20 46 22 46 1 0 2 -144 2 -320z m-552 241 c13 -1 34 -43 46 -93 l6 -27
-49 6 c-41 5 -58 13 -98 52 -76 71 -75 78 11 69 39 -4 77 -7 84 -7z m-207 -24
c20 -9 53 -35 73 -57 l38 -42 -27 -14 c-26 -13 -28 -12 -77 41 -27 30 -56 55
-64 55 -22 0 -17 -14 21 -50 43 -41 44 -50 6 -50 -16 0 -31 -6 -34 -12 -5 -17
-27 84 -27 127 0 32 1 33 28 25 15 -4 43 -15 63 -23z m3981 -34 c41 -106 46
-188 19 -293 -15 -57 -24 -66 -66 -73 -19 -3 -49 -16 -66 -27 -16 -12 -33 -20
-36 -17 -3 4 -2 27 1 52 9 56 41 74 144 78 6 0 12 7 12 15 0 11 -13 13 -57 10
-32 -2 -67 -8 -77 -13 -18 -8 -19 -5 -13 31 4 21 15 45 24 52 10 7 26 19 36
27 10 9 34 19 54 23 20 4 39 14 41 21 7 20 -73 6 -116 -21 l-33 -20 7 53 c6
55 20 85 55 120 30 30 55 24 71 -18z m227 -76 c1 -31 -3 -39 -25 -49 -23 -11
-29 -10 -45 11 -28 34 -23 55 19 82 43 28 50 22 51 -44z m-789 20 c25 -12 50
-25 55 -29 61 -49 98 -86 110 -112 51 -108 85 -365 60 -458 -14 -57 -23 -68
-35 -48 -15 24 -12 50 11 78 24 30 10 41 -22 18 -22 -15 -23 -14 -41 25 -23
52 -23 50 8 115 14 31 23 58 19 62 -9 9 -55 -45 -55 -64 0 -26 -20 -14 -34 21
-13 31 -13 41 5 97 11 35 24 77 29 94 13 41 13 54 -3 54 -9 0 -23 -33 -38 -85
-13 -47 -26 -85 -29 -85 -3 0 -15 19 -27 43 -30 57 -39 144 -19 191 14 34 8
54 -14 41 -13 -8 -33 -84 -27 -105 3 -13 0 -16 -14 -13 -27 7 -24 -5 15 -69
18 -31 28 -54 21 -51 -18 6 -59 -17 -49 -27 5 -5 25 -10 44 -12 26 -2 40 -11
57 -37 13 -19 23 -37 23 -41 0 -4 -25 -5 -55 -2 -46 4 -55 2 -55 -12 0 -12 10
-16 39 -16 64 0 97 -17 113 -59 l15 -37 -52 4 c-30 2 -55 0 -59 -6 -4 -7 -20
-5 -46 6 l-40 17 0 268 0 268 23 -7 c12 -3 42 -16 67 -27z m679 -77 c50 -92
53 -120 12 -120 -16 0 -35 -2 -43 -5 -10 -4 -13 13 -13 77 0 46 -4 97 -9 113
-13 45 6 22 53 -65z m-3954 18 c8 -18 25 -52 39 -76 l24 -43 -29 -29 c-38 -38
-38 -73 1 -112 24 -23 37 -29 60 -26 39 6 40 -16 1 -32 -41 -16 -60 -64 -40
-99 8 -14 28 -33 44 -41 28 -14 30 -18 20 -44 -9 -25 -6 -31 24 -58 23 -21 41
-28 57 -25 13 2 24 0 24 -4 0 -5 15 -9 33 -9 51 0 63 -14 32 -34 -19 -12 -26
-24 -23 -39 2 -13 -4 -30 -15 -40 -18 -18 -19 -18 -23 1 -6 23 -71 49 -86 34
-7 -7 -22 12 -45 55 -27 52 -32 68 -21 74 7 5 16 9 21 9 11 0 8 30 -4 30 -6 0
-19 -4 -29 -10 -16 -8 -23 -2 -51 43 -33 53 -35 63 -38 131 -1 34 -3 37 -17
25 -9 -8 -14 -22 -11 -37 5 -24 4 -24 -18 4 -20 25 -22 37 -17 86 4 49 2 58
-12 58 -12 0 -16 -10 -16 -37 l-1 -38 -28 33 c-26 30 -51 42 -51 24 0 -10 28
-51 56 -82 25 -28 34 -54 19 -55 -33 -3 -65 -17 -65 -29 0 -11 10 -13 39 -9
60 8 85 -2 109 -46 28 -49 27 -51 -2 -51 -35 0 -56 -10 -56 -27 0 -11 7 -13
30 -8 51 11 85 -2 103 -41 13 -25 14 -34 5 -33 -74 9 -90 -21 -18 -33 46 -8
96 -53 80 -73 -4 -5 -9 -18 -11 -27 -3 -14 -17 -5 -64 40 -33 32 -82 69 -108
82 -103 53 -167 197 -167 377 l0 106 50 -5 c28 -3 50 -1 50 4 0 15 44 -14 73
-48 29 -35 57 -45 57 -20 0 18 -87 94 -116 102 -12 3 -33 26 -48 54 l-26 48
32 5 c44 6 71 -5 93 -39 10 -16 27 -37 37 -48 10 -11 20 -27 23 -37 7 -20 32
-32 40 -20 2 5 -4 19 -14 32 -10 13 -30 43 -45 67 -27 43 -27 44 -7 49 12 3
21 9 21 14 0 18 10 8 25 -23z m561 -100 c-3 -68 -11 -141 -16 -163 -5 -22 -13
-62 -16 -90 -6 -43 -14 -58 -59 -104 l-53 -54 -45 12 c-25 6 -57 11 -71 11
-26 0 -48 21 -29 27 6 2 22 13 35 24 23 21 64 22 126 3 16 -5 22 -2 22 9 0 20
-60 40 -100 34 -16 -3 -30 -2 -30 3 0 5 -3 15 -6 24 -4 12 0 16 16 16 13 0 38
10 57 21 27 17 45 20 84 17 43 -4 49 -3 49 13 0 16 -8 19 -55 19 -50 0 -55 2
-61 25 -7 27 -49 55 -84 55 -11 0 -29 -9 -40 -20 -18 -18 -21 -18 -27 -5 -3 9
-1 21 6 28 6 6 11 21 11 33 0 44 98 125 194 160 104 39 100 43 92 -98z m3510
56 c-3 -9 -6 -31 -6 -50 0 -45 -14 -43 -28 3 -10 31 -9 38 6 49 23 18 35 17
28 -2z m-48 -170 l-3 -39 -65 -5 c-36 -3 -71 -9 -77 -13 -17 -11 -16 0 5 50
14 37 21 43 47 44 17 1 41 4 55 8 34 11 42 1 38 -45z m-229 -101 c-29 -48
-120 -155 -127 -149 -2 3 -1 30 3 61 6 53 9 57 58 90 29 19 60 35 70 35 17 0
17 -3 -4 -37z m183 -25 c-32 -57 -39 -60 -115 -40 -51 13 -54 18 -31 43 27 30
72 47 127 48 l49 1 -30 -52z m-381 -35 c47 -52 46 -68 -17 -339 -8 -33 -14
-72 -14 -87 0 -14 -13 -47 -29 -71 -15 -25 -33 -66 -40 -91 -6 -25 -16 -65
-22 -90 -7 -27 -21 -50 -34 -59 -23 -15 -24 -14 -44 27 -27 55 -27 55 9 125
17 33 30 65 30 72 0 26 -26 0 -54 -54 l-29 -57 -24 43 c-21 36 -24 52 -20 99
3 31 12 69 20 85 10 20 12 35 6 45 -12 19 -24 1 -45 -68 -8 -29 -17 -53 -18
-53 -2 0 -3 33 -2 73 1 80 -9 127 -25 127 -8 0 -9 -22 -5 -72 6 -59 5 -71 -5
-60 -7 6 -17 12 -21 12 -17 0 -7 -34 27 -91 19 -33 35 -64 35 -68 0 -4 -22 0
-48 8 l-48 16 4 165 c4 155 10 190 34 190 19 0 110 -99 102 -111 -4 -8 -3 -9
4 -5 15 9 73 -55 66 -74 -3 -8 -2 -12 1 -8 4 3 23 -11 42 -33 38 -42 45 -43
49 -7 6 52 34 171 43 182 16 19 33 140 29 204 -3 64 5 69 43 25z m311 -51 c8
-8 3 -23 -17 -52 -15 -22 -31 -40 -34 -40 -4 0 -24 9 -46 20 -22 11 -50 20
-63 20 l-24 0 27 33 c15 17 37 35 49 38 27 7 94 -5 108 -19z m-3322 -74 l12
-82 -39 -32 c-21 -18 -41 -33 -44 -34 -3 0 -32 -20 -64 -45 l-58 -45 -23 25
c-14 15 -34 25 -51 25 -25 0 -20 7 60 85 48 47 89 85 92 85 3 0 5 -10 5 -22
-1 -28 -25 -62 -38 -54 -6 3 -8 -2 -5 -12 2 -10 -3 -24 -11 -31 -18 -15 -21
-41 -6 -41 5 0 22 19 37 42 21 31 29 37 31 24 6 -28 27 -12 27 20 0 16 12 47
28 69 15 22 27 45 27 52 0 21 -18 15 -36 -12 -9 -14 -20 -22 -25 -20 -13 8 1
34 21 40 11 3 22 15 25 26 12 37 23 18 35 -63z m2630 9 c0 -13 -30 -47 -42
-47 -9 0 -11 53 -2 62 8 9 44 -3 44 -15z m182 -18 c13 -7 18 -18 15 -30 -3
-10 -2 -19 3 -19 4 0 11 -7 14 -16 6 -15 4 -15 -12 -3 -11 8 -44 31 -73 53
l-54 38 44 -6 c24 -4 52 -11 63 -17z m-27 -70 c80 -59 97 -81 93 -125 -2 -20
-7 -39 -13 -40 -5 -2 -26 17 -45 43 -19 25 -65 78 -102 118 -37 40 -65 75 -62
78 7 7 63 -25 129 -74z m412 60 c35 -13 38 -30 7 -55 -29 -23 -54 -31 -54 -16
0 5 -14 23 -32 41 -26 26 -29 34 -17 42 14 9 54 4 96 -12z m-3419 -12 l23 -13
-25 -23 c-20 -18 -28 -21 -44 -12 -12 6 -30 11 -41 11 -18 0 -19 3 -9 25 13
28 56 34 96 12z m2770 -287 c-3 -203 -8 -284 -17 -293 -8 -8 -14 -8 -19 -2
-16 24 -64 35 -97 24 -5 -2 -38 7 -73 20 -68 26 -82 25 -257 -14 -75 -17 -113
-14 -160 12 -46 25 -188 29 -277 9 -67 -16 -80 -16 -162 -2 -150 27 -268 20
-427 -24 -40 -12 -54 -11 -125 8 -87 24 -135 27 -162 12 -72 -39 -204 -49
-317 -24 -121 27 -164 28 -225 4 -30 -12 -62 -28 -71 -36 -14 -13 -19 -8 -41
43 -24 55 -26 70 -32 301 l-5 242 1236 0 1236 0 -5 -280z m556 239 c14 -17 26
-34 26 -38 0 -5 -23 -18 -51 -30 -46 -19 -50 -19 -44 -3 3 9 9 31 12 47 11 66
19 70 57 24z m218 -60 c7 -34 3 -130 -6 -179 -3 -14 -8 -36 -10 -50 -12 -59
-26 -109 -48 -163 -19 -49 -26 -57 -43 -53 -11 3 -46 6 -78 6 l-57 0 20 40 20
40 65 0 c35 0 67 5 70 10 9 14 -44 32 -82 28 -18 -2 -33 -2 -33 0 0 3 32 58
70 122 39 64 70 122 70 128 0 25 -29 -3 -61 -58 -34 -59 -49 -73 -49 -45 0 25
-23 65 -37 65 -17 0 -17 -11 2 -46 22 -43 18 -79 -13 -134 l-29 -50 -22 30
c-12 17 -28 30 -36 30 -20 0 -19 -4 14 -51 32 -43 31 -49 -10 -131 -5 -10 -9
-26 -10 -35 0 -10 -12 12 -26 50 -16 41 -31 67 -40 67 -8 0 -13 -6 -11 -12 38
-103 50 -155 46 -204 -5 -58 -11 -68 -44 -78 -20 -6 -22 -2 -29 55 -9 77 1
192 25 273 19 67 52 119 126 198 59 63 215 189 228 185 6 -2 14 -19 18 -38z
m-4037 1 c3 -5 25 -18 48 -28 23 -11 66 -45 96 -76 48 -52 81 -67 81 -37 0 6
12 -1 26 -16 18 -18 33 -24 50 -20 23 4 23 3 9 -13 -8 -9 -15 -31 -15 -48 0
-21 -5 -32 -14 -32 -21 0 -56 -49 -56 -77 0 -13 12 -35 27 -49 23 -21 35 -25
63 -20 19 3 36 10 38 16 2 5 11 10 20 10 12 0 9 -7 -12 -23 -16 -13 -30 -32
-31 -43 0 -10 -13 -31 -27 -47 l-26 -28 -26 48 c-15 27 -31 55 -36 63 -82 137
-94 164 -91 193 1 18 7 37 13 44 10 12 3 33 -11 33 -5 0 -15 -17 -22 -37 l-15
-37 -33 47 c-30 41 -61 61 -61 39 0 -4 28 -47 63 -95 95 -133 112 -161 90
-151 -10 4 -37 9 -60 12 -35 3 -43 1 -43 -12 0 -14 23 -21 52 -17 4 0 25 -8
48 -18 28 -12 50 -34 72 -67 32 -50 81 -154 76 -160 -2 -1 -21 0 -43 3 -42 6
-67 31 -168 167 -88 118 -147 281 -147 405 l0 81 29 0 c17 0 33 -4 36 -10z
m730 -48 c3 -27 -3 -57 -16 -87 -22 -50 -28 -56 -27 -22 4 65 -2 87 -23 87
-17 0 -19 -4 -12 -22 11 -31 6 -169 -7 -182 -6 -6 -16 -4 -28 7 -10 9 -23 17
-29 17 -6 0 -13 14 -17 31 -4 22 -14 34 -36 42 -16 6 -30 14 -30 17 1 13 20
34 26 28 6 -7 84 47 153 105 18 15 35 26 38 24 2 -3 6 -23 8 -45z m3406 -28
c-5 -22 -13 -76 -17 -122 -4 -45 -9 -84 -13 -86 -3 -2 -18 -6 -32 -9 l-26 -7
13 58 c8 31 14 75 14 97 0 59 8 79 38 96 15 9 28 15 30 13 2 -1 -1 -19 -7 -40z
m-4235 -91 c3 -16 10 -40 14 -55 11 -33 7 -35 -20 -8 -20 20 -50 27 -50 11 0
-4 22 -29 50 -55 30 -28 62 -72 81 -112 33 -67 92 -153 148 -212 l31 -33 -38
7 c-94 17 -184 97 -238 213 -38 82 -65 154 -69 186 -2 11 -4 25 -5 30 -1 6 -2
20 -1 33 1 19 6 22 46 22 41 0 45 -2 51 -27z m844 -17 c0 -15 -7 -26 -21 -29
-13 -4 -18 -1 -15 6 3 7 9 20 12 30 9 25 24 21 24 -7z m4 -72 c3 -9 6 -31 6
-50 0 -30 -3 -34 -28 -34 -15 0 -42 -4 -59 -9 l-33 -9 26 49 c21 42 47 66 75
68 4 1 10 -6 13 -15z m-140 -48 c8 -32 -132 -321 -170 -352 -19 -16 -34 -19
-62 -15 -32 5 -40 13 -61 53 l-24 47 23 36 c20 32 24 34 39 22 45 -39 126 -26
163 26 12 17 17 27 10 23 -8 -5 -12 0 -12 11 0 11 -5 24 -10 29 -7 7 -6 20 4
39 9 16 13 38 10 50 -3 14 3 25 23 37 40 23 60 22 67 -6z m2754 -9 c23 -7 40
-16 37 -19 -3 -3 5 -8 19 -12 21 -5 76 -76 76 -98 0 -3 -17 -1 -37 4 -63 17
-97 15 -101 -4 -3 -14 4 -18 31 -18 19 0 57 -7 84 -16 44 -14 50 -20 66 -62
10 -26 30 -69 44 -95 13 -27 23 -50 21 -51 -1 -2 -18 -8 -36 -14 -28 -9 -38
-9 -58 5 -49 32 -144 126 -174 173 -27 43 -30 54 -30 133 0 48 3 87 8 87 4 0
26 -6 50 -13z m722 -96 c-10 -39 -12 -41 -51 -41 l-40 0 16 30 c8 16 15 38 15
48 0 22 16 38 45 44 25 4 31 -24 15 -81z m-3352 31 c-1 -4 -16 -29 -33 -54
-28 -43 -33 -46 -78 -50 -26 -1 -47 -2 -47 0 0 1 9 20 19 41 19 37 22 38 116
66 19 6 27 5 23 -3z m108 -159 c37 -71 67 -130 65 -132 -1 -2 2 -7 7 -10 10
-6 62 -95 62 -105 0 -3 -20 -6 -44 -6 -62 0 -73 16 -52 81 12 37 14 55 7 62
-8 8 -11 7 -11 -3 0 -8 -16 10 -35 39 -19 30 -55 71 -79 91 l-45 38 27 35 c15
20 28 36 29 37 1 0 32 -57 69 -127z m1382 81 c58 -15 69 -15 120 0 87 24 229
25 278 1 59 -28 136 -30 231 -6 105 27 168 27 212 0 25 -15 43 -19 72 -14 52
9 94 -17 77 -49 -10 -19 -99 -139 -117 -159 -4 -4 -25 0 -47 10 -32 14 -75 18
-239 20 -110 2 -234 4 -275 5 -41 1 -120 -4 -175 -10 -84 -10 -116 -10 -203 4
-93 14 -110 14 -170 1 -189 -43 -268 -46 -392 -16 -47 11 -92 20 -100 20 -170
-10 -311 -23 -375 -35 -135 -26 -128 -29 -190 80 -48 83 -46 100 11 125 53 24
131 23 259 -5 91 -19 152 -16 255 16 74 23 141 21 228 -8 52 -17 53 -17 145 9
50 15 101 29 112 31 36 9 219 -4 283 -20z m1700 -23 c19 -12 -4 -54 -69 -125
-43 -47 -56 -56 -85 -56 -39 0 -38 -4 -19 76 26 110 29 114 99 114 34 0 67 -4
74 -9z m132 -25 c-15 -41 -33 -69 -70 -108 -28 -31 -41 -38 -72 -38 l-38 0 40
53 c22 28 45 58 50 64 6 7 10 15 10 18 -1 20 2 24 18 28 9 3 29 5 44 6 25 1
27 -1 18 -23z m-724 -73 c14 -32 19 -158 8 -198 -5 -18 -103 -85 -125 -85 -12
0 -12 132 1 165 6 16 14 23 22 19 6 -4 8 -3 5 3 -4 6 5 18 19 28 19 12 23 20
15 28 -15 15 -59 -19 -84 -66 -10 -20 -25 -37 -33 -37 -17 0 -17 -14 0 -65 8
-22 12 -43 9 -47 -2 -5 -27 -8 -54 -8 -28 0 -59 -5 -70 -11 -36 -19 -9 -29 62
-23 39 4 69 3 69 -2 0 -5 -28 -28 -63 -51 -65 -43 -67 -43 -116 -5 l-23 19 80
95 c89 107 174 223 204 282 l20 40 20 -25 c10 -13 26 -38 34 -56z m264 42 c0
-19 -2 -35 -5 -35 -9 0 -25 51 -19 61 12 20 24 7 24 -26z m-2966 -1 c-16 -24
-81 -64 -103 -64 -6 0 -3 15 6 35 16 34 47 53 91 54 22 1 22 0 6 -25z m136
-31 c58 -65 94 -128 84 -145 -5 -8 -16 -1 -33 18 -39 45 -128 107 -136 94 -4
-6 6 -21 22 -33 l28 -22 -44 -5 c-71 -8 -61 -27 13 -26 61 1 67 -1 101 -34 27
-27 34 -40 31 -60 -3 -14 -6 -43 -8 -64 -4 -51 18 -60 27 -12 6 29 11 34 30
33 14 -1 38 -19 58 -42 l35 -41 -24 -27 c-21 -25 -24 -25 -33 -9 -6 9 -11 13
-11 9 0 -8 -93 40 -217 111 l-63 36 0 81 c0 75 2 84 36 138 21 31 40 57 44 57
5 0 31 -26 60 -57z m-165 -63 c6 -19 -4 -160 -12 -160 -11 0 -142 71 -148 80
-10 17 13 39 74 70 67 35 78 36 86 10z m2845 -47 c33 -25 60 -48 60 -50 0 -4
-133 -64 -135 -61 -4 5 7 158 11 158 2 0 31 -21 64 -47z m-1170 -13 c47 0 130
7 184 15 72 11 109 12 136 5 21 -6 115 -10 208 -9 158 0 226 -7 261 -30 12 -8
7 -19 -25 -58 -112 -137 -297 -293 -459 -386 -216 -124 -474 -168 -715 -123
-146 28 -376 119 -500 199 -84 53 -233 172 -294 233 -47 48 -82 101 -73 111 3
2 31 8 63 13 33 5 97 16 144 24 97 17 323 23 360 8 14 -5 61 -15 106 -22 77
-12 89 -12 240 16 146 27 164 29 219 17 33 -7 98 -12 145 -13z m1804 -27 c3
-16 19 -80 36 -143 17 -63 37 -149 46 -190 8 -41 22 -103 31 -138 9 -34 14
-65 11 -68 -3 -2 -21 4 -39 15 -103 60 -363 83 -480 42 -129 -45 -268 -127
-396 -233 -29 -24 -98 -82 -155 -129 -121 -100 -186 -141 -326 -203 -86 -38
-326 -115 -434 -140 -76 -17 -333 -47 -408 -47 -90 0 -226 21 -294 45 -23 8
-87 29 -144 46 -165 50 -373 149 -582 278 -151 92 -186 118 -268 193 -97 90
-239 162 -378 191 -82 17 -120 19 -224 14 -69 -3 -140 -10 -157 -15 -18 -5
-33 -7 -33 -3 0 3 18 41 40 83 40 77 73 192 86 302 8 70 20 78 146 103 82 16
87 16 178 -5 116 -28 345 -143 745 -377 344 -201 586 -303 845 -356 105 -22
108 -22 231 -5 145 21 298 69 414 131 112 59 272 161 362 228 42 32 95 67 118
78 24 11 51 30 61 41 10 11 63 45 119 75 55 31 107 60 115 65 44 26 130 68
165 79 96 32 332 68 446 69 l117 1 6 -27z m-3064 -131 c9 -20 8 -27 -2 -33
-19 -13 -22 -11 -46 21 -28 37 -28 39 7 38 21 -1 32 -8 41 -26z m16 -114 c-10
-53 -18 -61 -49 -47 -35 16 -34 34 4 71 36 37 55 27 45 -24z m85 17 l54 -35
-35 0 c-19 0 -45 -3 -57 -6 -21 -6 -23 -3 -23 35 0 22 2 41 4 41 2 0 28 -16
57 -35z m1870 -12 c21 -16 39 -32 39 -38 0 -16 -355 -249 -455 -299 -190 -94
-375 -146 -523 -146 -71 0 -315 56 -371 84 -16 9 -56 25 -88 37 -84 30 -333
151 -333 161 0 16 44 68 57 68 7 0 30 -11 51 -24 20 -12 85 -46 145 -74 505
-242 935 -172 1382 222 22 20 44 36 48 36 5 0 26 -12 48 -27z m-1747 -77 l38
-34 -23 -31 c-32 -44 -43 -41 -53 15 -3 16 -8 41 -12 57 -7 35 3 34 50 -7z
m-76 -26 c3 -42 2 -44 -15 -28 -10 8 -38 26 -62 38 -53 26 -41 42 29 38 l45
-3 3 -45z m3030 -344 c71 -15 104 -41 152 -116 34 -53 54 -123 29 -104 -29 24
-195 75 -308 95 -138 25 -221 22 -386 -16 -60 -14 -139 -28 -175 -32 -56 -5
-67 -3 -83 14 -17 19 -16 21 15 52 62 61 182 106 323 120 117 12 353 5 433
-13z m-3491 -45 c23 -21 63 -52 88 -67 52 -33 56 -42 18 -37 -16 2 -55 -5 -87
-16 -33 -12 -61 -19 -63 -17 -3 2 0 13 6 24 17 31 13 73 -9 110 -24 38 -24 42
-7 42 7 0 32 -17 54 -39z m-84 -1 c49 -38 40 -106 -18 -144 -25 -16 -32 -17
-93 -2 -303 71 -562 52 -775 -56 l-39 -19 7 33 c11 50 52 122 98 167 l40 41
377 0 c361 0 378 -1 403 -20z m2713 -86 c30 -19 54 -37 54 -40 0 -6 -106 -54
-119 -54 -21 0 -81 34 -81 46 0 17 64 84 80 84 7 0 37 -16 66 -36z m-2631
-100 c-60 -29 -112 -51 -117 -48 -20 12 -5 34 35 48 209 79 246 78 82 0z m356
-65 c77 -41 158 -91 173 -107 15 -18 14 -19 -21 -30 -21 -5 -58 -13 -82 -17
-40 -7 -43 -6 -36 11 4 11 10 39 13 63 7 63 -19 50 -34 -16 -6 -28 -14 -55
-18 -62 -7 -10 -222 -8 -271 3 -11 2 -41 8 -67 11 -26 4 -46 11 -43 15 2 4 -6
5 -18 3 -12 -2 -44 7 -71 20 l-50 23 35 24 c18 14 99 57 179 96 l145 71 70
-47 c39 -26 82 -53 96 -61z m2415 56 c58 -58 61 -75 14 -75 -21 0 -28 4 -24
14 3 9 -3 17 -16 21 -12 4 -42 16 -67 27 l-46 20 32 15 c17 9 31 19 31 24 0
21 25 6 76 -46z m-318 -12 c-14 -16 -28 -37 -32 -48 -5 -18 -15 -20 -81 -20
-87 0 -85 4 15 59 36 20 78 36 94 36 l30 0 -26 -27z m116 -41 c-13 -7 -24 -21
-24 -32 0 -16 -5 -19 -32 -14 -51 9 -58 12 -58 30 0 9 10 28 23 43 l22 27 46
-20 c47 -21 47 -21 23 -34z m184 -97 c28 -26 52 -50 52 -55 0 -7 -38 -20 -70
-25 -3 0 -11 -4 -18 -9 -7 -4 -19 -5 -27 -2 -7 2 -15 0 -17 -5 -7 -20 -181
-33 -280 -22 -95 11 -217 52 -251 84 -17 16 -17 18 20 40 21 13 41 23 46 21 4
-1 7 2 7 8 0 5 19 7 42 5 26 -2 45 1 50 8 11 16 55 -37 64 -75 3 -16 12 -28
20 -28 18 0 18 1 -8 55 -23 48 -19 67 12 47 10 -6 42 -12 70 -13 28 -1 53 -6
56 -11 3 -4 16 -8 29 -8 17 0 31 -12 52 -45 33 -52 48 -58 40 -15 -8 36 -4 37
66 5 59 -26 89 -19 34 8 -60 29 -105 47 -119 47 -7 0 -23 7 -35 15 -23 16 -21
45 3 45 8 0 14 7 14 15 0 19 75 -26 148 -90z m-1793 -141 c40 -17 39 -22 -15
-51 -48 -25 -211 -133 -234 -155 -11 -10 -38 -30 -60 -45 -23 -16 -47 -36 -54
-45 -22 -30 -37 -21 -65 39 -15 31 -25 58 -24 58 1 1 36 22 77 45 41 24 83 50
92 58 31 26 202 111 224 112 12 0 38 -7 59 -16z m858 -41 c63 -28 211 -115
236 -138 12 -12 12 -19 1 -47 -8 -18 -14 -34 -15 -36 -1 -1 -25 13 -54 31 -28
19 -49 37 -46 40 3 4 2 5 -1 2 -4 -2 -29 9 -58 26 -28 16 -98 53 -156 81
l-105 51 35 12 c46 17 88 12 163 -22z m-1293 -305 c0 -12 -49 -68 -59 -68 -8
0 -14 168 -6 180 7 11 65 -90 65 -112z m1614 28 l8 -39 -36 36 c-32 34 -34 39
-24 67 l10 31 18 -28 c9 -16 20 -46 24 -67z"/>
<path d="M1618 4793 c6 -2 18 -2 25 0 6 3 1 5 -13 5 -14 0 -19 -2 -12 -5z"/>
<path d="M2883 4823 c9 -2 25 -2 35 0 9 3 1 5 -18 5 -19 0 -27 -2 -17 -5z"/>
<path d="M2626 4772 c5 -5 36 -6 69 -2 l60 7 -69 2 c-39 0 -66 -3 -60 -7z"/>
<path d="M1200 4580 c-8 -5 -10 -10 -5 -10 6 0 17 5 25 10 8 5 11 10 5 10 -5
0 -17 -5 -25 -10z"/>
<path d="M3435 4631 c13 -11 77 -32 82 -27 2 2 -17 11 -44 20 -26 9 -43 12
-38 7z"/>
<path d="M3008 4433 c7 -3 16 -2 19 1 4 3 -2 6 -13 5 -11 0 -14 -3 -6 -6z"/>
<path d="M1570 4415 c-19 -7 -28 -13 -20 -13 8 0 31 6 50 13 19 7 28 13 20 13
-8 0 -31 -6 -50 -13z"/>
<path d="M3058 4423 c6 -2 18 -2 25 0 6 3 1 5 -13 5 -14 0 -19 -2 -12 -5z"/>
<path d="M1843 4413 c9 -2 23 -2 30 0 6 3 -1 5 -18 5 -16 0 -22 -2 -12 -5z"/>
<path d="M3108 4413 c7 -3 16 -2 19 1 4 3 -2 6 -13 5 -11 0 -14 -3 -6 -6z"/>
<path d="M1778 4403 c6 -2 18 -2 25 0 6 3 1 5 -13 5 -14 0 -19 -2 -12 -5z"/>
<path d="M2233 4403 c69 -3 77 -6 77 -24 0 -26 -3 -26 -148 -33 -123 -5 -123
-5 -120 17 2 18 11 23 53 28 28 4 10 5 -40 2 -49 -3 -121 -11 -160 -19 -71
-14 -65 -13 83 3 48 5 52 4 52 -15 0 -14 -8 -23 -22 -26 -13 -3 -57 -11 -98
-19 l-75 -15 57 2 c32 0 58 4 58 7 0 3 48 11 107 18 81 9 108 9 113 1 5 -9 9
-9 14 -1 5 7 53 11 137 11 128 0 129 0 129 -23 0 -13 -5 -28 -12 -35 -9 -9 9
-12 82 -10 l95 2 -77 3 -78 4 0 29 c0 38 -9 38 310 6 l55 -5 -45 10 c-25 5
-76 13 -115 17 -62 6 -70 10 -73 29 -3 19 2 22 45 26 l48 3 -56 2 c-55 2 -56
1 -51 -23 l4 -26 -128 3 c-125 3 -129 4 -132 25 -3 22 -1 22 120 26 68 1 31 3
-82 3 -113 0 -170 -2 -127 -3z"/>
<path d="M2898 4403 c6 -2 18 -2 25 0 6 3 1 5 -13 5 -14 0 -19 -2 -12 -5z"/>
<path d="M1728 4393 c6 -2 18 -2 25 0 6 3 1 5 -13 5 -14 0 -19 -2 -12 -5z"/>
<path d="M3015 4380 c44 -11 87 -19 95 -18 24 1 -122 36 -150 36 -14 0 11 -8
55 -18z"/>
<path d="M1678 4383 c6 -2 18 -2 25 0 6 3 1 5 -13 5 -14 0 -19 -2 -12 -5z"/>
<path d="M2708 4383 c12 -2 32 -2 45 0 12 2 2 4 -23 4 -25 0 -35 -2 -22 -4z"/>
<path d="M2815 4371 c33 -5 39 -10 37 -26 -2 -11 -8 -25 -14 -32 -7 -8 6 -13
46 -18 59 -8 66 -17 46 -56 -8 -15 -7 -19 5 -19 8 0 14 3 14 8 -5 31 3 51 24
54 13 3 3 7 -28 12 -79 12 -86 16 -83 39 3 24 14 25 103 14 29 -4 14 2 -35 13
-47 10 -101 19 -120 18 l-35 -1 40 -6z"/>
<path d="M3220 4330 c52 -16 100 -28 105 -26 13 4 -110 43 -161 51 -22 3 4 -8
56 -25z"/>
<path d="M3320 4350 c8 -5 22 -9 30 -9 10 0 8 3 -5 9 -27 12 -43 12 -25 0z"/>
<path d="M3068 4323 c7 -3 16 -2 19 1 4 3 -2 6 -13 5 -11 0 -14 -3 -6 -6z"/>
<path d="M3100 4298 c0 -19 2 -20 10 -8 13 19 13 30 0 30 -5 0 -10 -10 -10
-22z"/>
<path d="M2700 4280 c0 -11 4 -20 8 -20 4 0 8 9 8 20 0 11 -4 20 -8 20 -4 0
-8 -9 -8 -20z"/>
<path d="M3198 4293 c7 -3 16 -2 19 1 4 3 -2 6 -13 5 -11 0 -14 -3 -6 -6z"/>
<path d="M1937 4270 c-3 -11 -1 -20 4 -20 5 0 9 9 9 20 0 11 -2 20 -4 20 -2 0
-6 -9 -9 -20z"/>
<path d="M2163 4279 c-10 -4 10 -8 47 -8 68 1 71 5 8 11 -20 2 -45 1 -55 -3z"/>
<path d="M2328 4283 c12 -2 30 -2 40 0 9 3 -1 5 -23 4 -22 0 -30 -2 -17 -4z"/>
<path d="M3245 4280 c27 -12 43 -12 25 0 -8 5 -22 9 -30 9 -10 0 -8 -3 5 -9z"/>
<path d="M3015 4270 c11 -5 29 -8 40 -8 16 0 15 2 -5 8 -34 11 -60 11 -35 0z"/>
<path d="M2078 4263 c12 -2 30 -2 40 0 9 3 -1 5 -23 4 -22 0 -30 -2 -17 -4z"/>
<path d="M3085 4260 c-2 -4 9 -10 27 -14 41 -8 45 -3 8 11 -17 6 -32 8 -35 3z"/>
<path d="M1585 4250 c-13 -5 -14 -9 -5 -9 8 0 24 4 35 9 13 5 14 9 5 9 -8 0
-24 -4 -35 -9z"/>
<path d="M2818 4243 c6 -2 18 -2 25 0 6 3 1 5 -13 5 -14 0 -19 -2 -12 -5z"/>
<path d="M2878 4233 c7 -3 16 -2 19 1 4 3 -2 6 -13 5 -11 0 -14 -3 -6 -6z"/>
<path d="M3180 4224 c0 -8 5 -12 10 -9 6 4 8 11 5 16 -9 14 -15 11 -15 -7z"/>
<path d="M3275 4200 c3 -5 14 -10 23 -10 15 0 15 2 2 10 -20 13 -33 13 -25 0z"/>
<path d="M3058 4193 c7 -3 16 -2 19 1 4 3 -2 6 -13 5 -11 0 -14 -3 -6 -6z"/>
<path d="M1618 4643 c7 -3 16 -2 19 1 4 3 -2 6 -13 5 -11 0 -14 -3 -6 -6z"/>
<path d="M713 4390 c-38 -23 -59 -55 -42 -66 6 -4 24 7 40 24 16 17 38 33 49
37 11 3 20 11 20 16 0 15 -33 10 -67 -11z"/>
<path d="M3965 3830 c-8 -13 3 -30 20 -30 7 0 34 -16 60 -35 48 -37 80 -39 48
-2 -19 21 -102 77 -114 77 -4 0 -11 -4 -14 -10z"/>
<path d="M4198 3772 c-32 -21 -88 -90 -88 -108 0 -22 28 -16 35 7 4 12 25 39
47 60 45 42 49 69 6 41z"/>
<path d="M3950 3624 c0 -5 17 -17 38 -26 20 -9 51 -28 67 -42 35 -30 48 -33
43 -9 -7 35 -148 108 -148 77z"/>
<path d="M4146 3515 c-28 -22 -46 -44 -46 -56 0 -18 5 -16 42 16 23 19 53 38
65 41 13 4 23 12 23 20 0 24 -36 15 -84 -21z"/>
<path d="M4040 3442 c0 -13 40 -42 57 -42 19 0 16 27 -4 33 -10 2 -26 8 -35
12 -11 4 -18 3 -18 -3z"/>
<path d="M3085 3763 c-57 -16 -95 -67 -95 -129 0 -97 105 -163 190 -119 90 46
103 161 25 221 -34 25 -84 37 -120 27z"/>
<path d="M2781 3238 c-124 -66 -121 -257 4 -318 98 -47 214 -9 256 84 36 79
13 169 -56 222 -53 40 -141 45 -204 12z"/>
<path d="M940 2985 c-7 -9 -21 -13 -31 -10 -15 5 -19 1 -19 -18 0 -13 -9 -41
-19 -63 -23 -45 -13 -64 20 -40 13 9 43 16 67 16 36 0 43 3 40 18 -3 13 -13
17 -46 16 l-43 -2 17 27 c10 14 23 30 31 34 14 9 18 37 4 37 -5 0 -14 -7 -21
-15z"/>
<path d="M4347 1543 c-15 -14 -6 -52 13 -58 23 -7 26 -21 8 -28 -7 -2 -10 -7
-7 -11 10 -11 49 34 49 57 0 37 -41 62 -63 40z m37 -19 c9 -22 8 -24 -9 -24
-8 0 -15 9 -15 20 0 24 15 27 24 4z"/>
<path d="M392 1524 c-30 -20 -26 -58 6 -62 25 -4 28 -12 10 -31 -11 -11 -9
-12 8 -2 30 15 39 57 19 87 -18 28 -15 28 -43 8z m36 -32 c3 -17 -2 -22 -17
-22 -16 0 -21 6 -21 26 0 33 33 30 38 -4z"/>
<path d="M4280 1531 c0 -5 -3 -16 -6 -25 -4 -11 0 -16 14 -16 28 0 38 -30 12
-37 -22 -6 -27 -23 -7 -23 34 0 49 48 22 70 -12 10 -13 16 -4 26 9 11 7 14
-10 14 -11 0 -21 -4 -21 -9z"/>
<path d="M4195 1518 c-4 -9 -3 -23 1 -30 5 -7 7 -23 5 -35 -1 -13 3 -23 9 -23
7 0 9 8 5 20 -9 29 23 26 35 -2 l9 -23 0 22 c1 12 -4 25 -9 28 -6 3 -7 17 -4
31 5 17 2 24 -9 24 -10 0 -13 -7 -10 -20 7 -27 -6 -25 -16 3 -8 19 -10 20 -16
5z"/>
<path d="M4136 1512 c-3 -5 -1 -24 5 -41 6 -17 8 -38 5 -46 -3 -9 0 -15 10
-15 12 0 14 9 8 48 -7 49 -18 70 -28 54z"/>
<path d="M540 1505 c0 -3 8 -17 17 -32 17 -25 16 -26 -12 -49 -16 -13 -26 -27
-21 -31 4 -4 16 3 27 17 16 21 20 23 29 10 5 -8 10 -21 10 -27 0 -7 5 -13 10
-13 13 0 13 13 -1 44 -10 22 -9 28 12 45 13 11 20 20 16 21 -5 0 -16 -7 -25
-17 -15 -15 -17 -14 -22 8 -5 20 -40 42 -40 24z"/>
<path d="M3938 1457 c-32 -18 -58 -34 -59 -37 -2 -5 39 -90 47 -99 2 -2 33 11
69 30 36 18 61 35 55 37 -14 5 -40 57 -40 82 0 26 -4 25 -72 -13z m61 -31 c25
-39 27 -56 6 -56 -15 0 -45 49 -45 75 0 25 17 17 39 -19z m-46 -32 c16 -33 16
-54 -2 -54 -8 0 -41 64 -41 80 0 24 28 7 43 -26z"/>
<path d="M660 1463 c0 -10 -3 -35 -6 -55 -4 -21 -2 -38 3 -38 5 0 13 25 19 55
8 43 7 55 -3 55 -7 0 -13 -8 -13 -17z"/>
<path d="M717 1443 c-3 -16 -9 -40 -13 -55 -5 -21 -3 -28 8 -28 7 0 14 8 14
18 0 9 4 34 8 55 4 21 3 37 -2 37 -6 0 -12 -12 -15 -27z"/>
<path d="M842 1379 c-13 -22 -21 -43 -18 -47 7 -6 5 -9 34 46 30 54 15 55 -16
1z"/>
<path d="M1200 1380 c9 -17 9 -25 -2 -38 -8 -9 -50 -59 -93 -110 -67 -81 -81
-93 -101 -88 -13 4 -24 5 -24 3 0 -8 122 -108 127 -103 3 3 0 12 -7 20 -10 13
4 34 81 126 82 98 96 111 118 107 22 -4 19 1 -24 40 -27 24 -58 49 -68 55 -17
8 -17 7 -7 -12z"/>
<path d="M3727 1394 c-4 -4 -7 -29 -7 -56 0 -46 1 -48 21 -38 15 8 24 8 34 0
15 -12 25 -2 21 21 -3 20 -61 81 -69 73z m23 -60 c0 -8 -5 -12 -10 -9 -6 4 -8
11 -5 16 9 14 15 11 15 -7z"/>
<path d="M900 1366 c-5 -13 -14 -27 -19 -31 -6 -3 -11 -12 -11 -18 0 -7 7 -4
14 6 19 24 29 21 24 -8 -6 -28 10 -34 18 -7 3 9 10 25 15 34 15 28 10 43 -7
22 -15 -19 -15 -18 -11 4 7 30 -11 28 -23 -2z"/>
<path d="M983 1343 c20 -5 22 -22 3 -29 -8 -3 -13 -16 -12 -29 2 -33 23 -11
32 33 6 29 4 32 -17 31 -17 -1 -19 -3 -6 -6z"/>
<path d="M3632 1338 c-13 -13 -17 -38 -6 -38 4 0 12 7 19 17 21 29 38 5 31
-43 -3 -24 -4 -44 -1 -44 16 0 55 26 55 37 0 16 -16 17 -27 1 -5 -8 -10 4 -13
32 -4 35 -9 46 -25 48 -11 1 -26 -3 -33 -10z"/>
<path d="M3430 1313 c0 -5 21 -74 46 -154 25 -79 46 -159 46 -177 l0 -34 34
33 c40 39 42 48 10 42 -19 -4 -25 1 -35 28 -11 31 -9 35 25 70 35 36 37 37 68
24 23 -10 30 -19 28 -36 -2 -22 -2 -22 19 -3 12 10 35 37 53 59 22 28 26 37
13 32 -13 -5 -63 13 -150 54 -73 33 -138 63 -144 66 -7 3 -13 1 -13 -4z m108
-123 c17 -11 32 -23 32 -28 0 -5 -13 -21 -29 -36 l-28 -27 -6 23 c-3 13 -10
38 -15 56 -13 38 -2 41 46 12z"/>
<path d="M1021 1284 c-19 -24 -28 -54 -17 -54 2 0 13 16 25 35 11 19 25 35 31
35 18 0 11 -28 -16 -59 -30 -36 -18 -42 15 -7 26 27 25 69 0 74 -9 2 -26 -9
-38 -24z"/>
<path d="M930 1270 c0 -5 5 -10 11 -10 5 0 7 5 4 10 -3 6 -8 10 -11 10 -2 0
-4 -4 -4 -10z"/>
<path d="M1323 1250 c9 -24 4 -40 -48 -136 -61 -115 -69 -125 -94 -117 -9 3 0
-9 19 -26 40 -35 56 -40 39 -13 -10 16 -4 35 37 115 27 54 51 97 55 97 3 0 14
-73 25 -162 11 -90 24 -162 29 -162 6 1 38 58 73 128 52 104 67 126 85 126 22
1 22 1 2 16 -11 9 -28 20 -38 25 -15 9 -17 7 -12 -14 5 -17 -4 -45 -26 -88
-30 -61 -33 -63 -39 -37 -4 14 -11 64 -15 110 -8 93 -19 116 -68 146 l-34 20
10 -28z"/>
<path d="M3263 1168 c-69 -41 -159 -88 -168 -88 -13 0 -105 -57 -105 -64 0 -3
6 -3 14 0 10 4 24 -24 51 -105 43 -129 43 -168 2 -191 -27 -14 -29 -14 -52 13
-14 15 -32 53 -40 85 -9 31 -22 74 -30 96 -10 27 -11 44 -4 57 9 18 9 18 -26
2 -30 -14 -33 -18 -18 -24 13 -5 29 -40 52 -114 19 -59 41 -113 48 -121 41
-41 116 -20 149 42 20 37 22 28 -41 247 -13 45 -12 48 8 58 25 14 26 13 109
-134 50 -89 58 -110 48 -122 -22 -26 -4 -27 37 -3 21 13 51 30 67 38 17 8 47
31 68 51 31 29 38 43 38 73 0 51 -39 91 -81 82 -28 -5 -40 6 -19 19 17 10 11
71 -8 88 -25 23 -73 30 -99 15z m27 -58 c26 -26 26 -72 0 -95 -24 -21 -28 -18
-64 48 l-27 47 23 10 c35 13 46 12 68 -10z m89 -136 c12 -15 21 -37 21 -50 0
-26 -35 -67 -51 -62 -6 2 -25 29 -42 61 -27 49 -30 59 -17 67 29 18 68 11 89
-16z"/>
<path d="M1580 1116 c0 -3 5 -15 12 -25 9 -15 2 -34 -42 -112 -81 -141 -88
-151 -113 -143 -26 8 -24 6 33 -38 112 -84 167 -99 231 -62 68 40 100 159 61
231 -9 17 -37 47 -62 65 -25 19 -62 47 -82 62 -21 16 -38 26 -38 22z m124
-118 c23 -32 20 -77 -10 -136 -31 -62 -75 -102 -114 -102 -58 0 -56 20 15 144
37 64 73 116 80 116 8 0 21 -10 29 -22z"/>
<path d="M2685 934 c-60 -20 -116 -38 -124 -40 -10 -3 -11 -14 -6 -42 8 -46
25 -66 25 -30 0 31 27 66 55 70 21 3 41 -45 85 -204 17 -63 17 -69 2 -84 -18
-19 -24 -20 80 12 51 16 55 19 36 28 -15 8 -31 44 -59 131 -22 65 -39 127 -39
137 0 31 67 28 92 -5 23 -30 29 -19 15 26 -15 46 -20 46 -162 1z"/>
<path d="M1897 846 c-59 -62 -121 -119 -139 -127 l-31 -13 39 -17 c50 -22 77
-24 49 -3 -18 14 -19 16 -3 42 20 31 43 33 101 8 34 -14 37 -18 37 -57 0 -36
-2 -41 -20 -36 -11 3 -20 1 -20 -3 0 -5 34 -20 75 -33 41 -14 75 -22 75 -17 0
5 -5 10 -11 12 -10 3 -28 196 -29 311 0 26 -4 47 -8 47 -4 0 -56 -51 -115
-114z m47 -27 c14 -73 9 -79 -51 -54 l-36 15 33 35 c19 19 37 35 41 35 3 0 9
-14 13 -31z"/>
<path d="M2136 903 c15 -11 16 -26 10 -144 -8 -148 -11 -157 -40 -169 -16 -7
-9 -9 29 -9 28 -1 68 -4 90 -6 35 -5 37 -4 18 6 -19 10 -23 21 -23 56 0 74 21
237 32 251 15 18 11 19 -65 24 -57 3 -66 2 -51 -9z"/>
<path d="M2396 763 c-38 -82 -78 -156 -90 -165 -21 -17 -21 -18 16 -18 20 0
43 -3 52 -6 9 -3 16 -1 16 5 0 6 -6 11 -14 11 -20 0 -27 27 -14 55 10 22 17
25 70 25 56 0 58 -1 72 -32 12 -28 12 -35 0 -44 -11 -9 -2 -13 38 -18 29 -3
64 -6 78 -6 24 1 24 1 6 15 -15 11 -94 181 -138 298 -5 15 -13 27 -17 27 -4 0
-38 -66 -75 -147z m67 -28 l16 -45 -45 0 c-24 0 -44 2 -44 5 0 14 45 93 51 89
4 -2 14 -24 22 -49z"/>
<path d="M1202 758 c5 -17 107 -70 119 -62 15 9 1 23 -51 49 -55 28 -74 31
-68 13z"/>
<path d="M1043 683 c-38 -3 -53 -8 -53 -19 0 -11 20 -14 102 -14 l101 0 -21
-23 c-23 -24 -29 -47 -12 -47 10 0 92 85 98 101 4 9 -105 9 -215 2z"/>
<path d="M2037 5243 c-12 -11 -8 -165 5 -200 14 -39 27 -44 20 -8 l-4 25 257
0 257 0 -4 -25 c-3 -14 -1 -25 3 -25 5 0 9 8 9 18 0 10 5 23 10 28 7 7 10 47
8 100 l-3 89 -62 3 -63 3 0 -30 c0 -47 -10 -61 -40 -61 -27 0 -29 3 -32 43
l-3 42 -67 3 -68 3 0 -46 c0 -43 -1 -45 -30 -45 -29 0 -30 2 -30 45 l0 45 -78
0 c-43 0 -82 -3 -85 -7z m138 -56 l0 -47 47 0 47 0 3 48 3 47 50 0 50 0 3 -47
3 -48 54 0 54 0 3 48 3 47 40 0 40 0 3 -82 3 -83 -266 0 -265 0 0 78 c0 43 3
82 7 86 4 4 32 6 63 4 l55 -3 0 -48z"/>
<path d="M2764 5236 c-2 -6 -9 -52 -17 -103 l-13 -91 101 -16 c186 -30 373
-64 383 -70 8 -4 32 133 32 181 0 13 -104 38 -119 29 -5 -4 -12 -20 -16 -36
-8 -36 -18 -43 -46 -35 -17 6 -20 14 -17 48 l3 41 -52 12 -51 11 -12 -43 c-13
-46 -25 -53 -53 -31 -13 9 -15 19 -8 48 l8 37 -59 14 c-42 11 -61 12 -64 4z
m66 -22 c31 -7 32 -8 25 -51 -7 -48 -1 -54 56 -57 29 -1 33 3 43 39 11 36 14
40 41 37 41 -5 45 -11 36 -55 -10 -42 -10 -43 42 -52 37 -7 38 -7 54 34 16 42
17 42 57 35 23 -3 43 -8 45 -10 2 -1 0 -35 -4 -73 -6 -60 -10 -71 -25 -71 -19
0 -377 56 -419 66 -22 5 -23 8 -16 62 9 74 15 102 25 102 4 0 22 -3 40 -6z"/>
<path d="M1905 4980 c-3 -5 -1 -10 4 -10 6 0 11 5 11 10 0 6 -2 10 -4 10 -3 0
-8 -4 -11 -10z"/>
<path d="M2898 4963 c7 -3 16 -2 19 1 4 3 -2 6 -13 5 -11 0 -14 -3 -6 -6z"/>
<path d="M2953 4953 c9 -2 23 -2 30 0 6 3 -1 5 -18 5 -16 0 -22 -2 -12 -5z"/>
<path d="M3013 4943 c9 -2 23 -2 30 0 6 3 -1 5 -18 5 -16 0 -22 -2 -12 -5z"/>
<path d="M2598 4933 c7 -3 16 -2 19 1 4 3 -2 6 -13 5 -11 0 -14 -3 -6 -6z"/>
<path d="M2713 4923 c9 -2 23 -2 30 0 6 3 -1 5 -18 5 -16 0 -22 -2 -12 -5z"/>
<path d="M3143 4873 c9 -2 23 -2 30 0 6 3 -1 5 -18 5 -16 0 -22 -2 -12 -5z"/>
<path d="M3198 4863 c6 -2 18 -2 25 0 6 3 1 5 -13 5 -14 0 -19 -2 -12 -5z"/>
<path d="M3244 4851 c3 -5 3 -23 0 -40 -5 -23 -12 -31 -28 -32 -19 -1 -18 -2
4 -9 14 -4 34 -8 45 -8 18 0 18 1 2 5 -19 5 -20 34 -2 76 5 12 3 17 -10 17 -9
0 -14 -4 -11 -9z"/>
<path d="M3288 4843 c7 -3 16 -2 19 1 4 3 -2 6 -13 5 -11 0 -14 -3 -6 -6z"/>
<path d="M1398 4833 c7 -3 16 -2 19 1 4 3 -2 6 -13 5 -11 0 -14 -3 -6 -6z"/>
<path d="M3340 4830 c34 -11 60 -11 35 0 -11 5 -29 8 -40 8 -16 0 -15 -2 5 -8z"/>
<path d="M1476 4770 c-16 -5 -33 -7 -37 -4 -4 2 -10 0 -14 -6 -8 -13 8 -12 75
5 30 7 44 13 30 13 -14 0 -38 -4 -54 -8z"/>
<path d="M3128 4713 c7 -3 16 -2 19 1 4 3 -2 6 -13 5 -11 0 -14 -3 -6 -6z"/>
<path d="M3181 4700 c21 -9 25 -16 22 -38 l-4 -27 16 28 c19 34 20 33 -25 41
-31 5 -32 5 -9 -4z"/>
<path d="M3255 4680 c11 -5 29 -8 40 -8 16 0 15 2 -5 8 -34 11 -60 11 -35 0z"/>
<path d="M1450 4663 c0 -5 5 -15 10 -23 8 -12 10 -11 10 8 0 12 -4 22 -10 22
-5 0 -10 -3 -10 -7z"/>
</g>
</svg>
